M48
;Layer_Color=9474304
;FILE_FORMAT=2:5
INCH
;TYPE=PLATED
T1F00S00C0.01968
T2F00S00C0.01968
T3F00S00C0.03543
T5F00S00C0.03937
T6F00S00C0.04724
T7F00S00C0.12598
%
T01
X0031156Y0004956
X0041943Y0005090
X0039567Y0020082
X0036067
X0032567
X0034284Y0022779
X0037784
X0039500Y0025476
X0036000
X0032500
X0048990Y0037666
X0073129Y0005224
X0091927Y0014709
X0102715Y0014842
X0113502Y0014976
X0124290Y0015110
X0141160Y0020151
X0153597Y0019028
X0158557
X0165250Y0018952
X0183888Y0012197
X0183955Y0006803
X0189172Y0009500
X0194388Y0006803
X0194455Y0012197
X0199672Y0009500
X0204888Y0006803
X0204955Y0012197
X0210172Y0009500
X0205763Y0048076
X0194975Y0048077
X0148597Y0051500
X0138467Y0050622
X0138601Y0039835
X0116063Y0042363
Y0033326
X0105276Y0033192
Y0042229
X0216878Y0042634
X0220445
X0224012
X0227579
X0225795Y0039937
X0222228
X0218661
X0216550Y0048074
X0227338Y0048072
X0259700Y0040525
X0260633Y0033279
X0264843Y0033000
X0269134
X0270487Y0040524
X0281275Y0040522
X0286295Y0028394
X0289795
X0293295
X0296795
X0300295
X0298579Y0025697
X0295012
X0291512
X0288012
X0289728Y0023000
X0286228
X0293228
X0296728
X0300362
X0300646Y0006303
X0304213
X0302429Y0003606
X0298862
X0295295
X0297079Y0006303
X0293512
X0313016Y0014128
X0323803Y0014127
X0341101Y0010253
X0345412Y0011619
X0348184Y0010106
X0350956Y0011619
X0353728Y0010106
X0356500Y0011619
X0351503Y0040213
X0259228Y0027965
X0255728
X0252228
X0254012Y0025268
X0257512
X0255795Y0022571
X0259295
X0252295
X0215455Y0012197
X0215388Y0006803
X0371145Y0027559
X0374634Y0030713
X0372492Y0047083
X0378638Y0046236
X0404134Y0048363
X0407181Y0050650
X0415427
X0412634Y0038457
Y0033937
X0419634Y0033808
X0419784Y0025120
X0434949Y0020781
X0445737Y0020779
X0456524Y0020778
X0467312Y0020776
X0476477Y0016867
X0479060Y0026159
X0492838Y0026159
X0490256Y0016867
X0504036Y0016867
X0506618Y0026159
X0520398Y0026158
X0517815Y0016866
X0517858Y0003927
X0507071Y0003929
X0496283Y0003930
X0485496Y0003932
X0474708Y0003934
X0463921Y0003935
X0398739Y0004000
X0400041Y0007591
X0401404Y0011230
X0407508Y0016000
X0486391Y0053925
X0500144Y0053925
X0513914Y0053887
X0527747Y0053887
X0533588Y0023704
X0531595Y0016865
X0528646Y0003926
X0539433Y0003924
X0567288Y0038251
X0567290Y0049038
X0567292Y0059826
X0567293Y0070613
X0567295Y0081401
X0567297Y0092188
X0567298Y0102976
X0567300Y0113763
X0567302Y0124551
X0567303Y0135338
X0530594Y0072831
X0519807Y0072833
X0514961Y0080315
X0466875Y0069172
X0456087Y0069173
X0445300Y0069175
X0434512Y0069177
X0439921Y0057608
X0450709Y0057607
X0461496Y0057605
X0472284Y0057603
X0384378Y0065362
X0386614Y0165750
X0397402Y0165748
X0408189Y0165746
X0375827Y0165751
X0291667Y0165740
X0280880Y0165742
X0270092Y0165743
X0259305Y0165745
X0265272Y0079445
X0254461Y0078189
X0243673Y0078190
X0232886Y0078192
X0222099Y0078193
X0227338Y0061919
X0216550Y0061921
X0238125Y0061918
X0248913Y0061916
X0259700Y0061914
X0281275Y0061911
X0279797Y0078291
X0301870Y0079642
X0302850Y0061908
X0313637Y0061906
X0324425Y0061905
X0363324Y0076689
X0366773Y0076712
X0205763Y0061923
X0194975Y0061924
X0184188Y0061926
X0173400Y0061927
X0162613Y0061929
X0151826Y0061931
X0141038Y0061932
X0130251Y0061934
X0119463Y0061936
X0108676Y0061937
X0097888Y0061939
X0087101Y0061941
X0076314Y0061942
X0065526Y0061944
X0087097Y0078242
X0097884Y0078240
X0108672Y0078238
X0119459Y0078237
X0130246Y0078235
X0141034Y0078233
X0151821Y0078232
X0160575Y0079921
X0173879Y0165738
X0184666Y0165737
X0195454Y0165735
X0206241Y0165733
X0067467
X0056679Y0165735
X0045892Y0165737
X0007505Y0129288
X0007503Y0118500
X0007502Y0107713
X0007500Y0096925
X0007622Y0072601
X0004122
X0005906Y0069904
X0004189Y0067207
X0007689
X0015827Y0080712
X0026614Y0080710
X0037402Y0080709
X0033164Y0061949
X0043951Y0061947
X0054739Y0061945
T02
X0383953Y0023598
Y0027929
Y0032260
Y0036591
Y0040921
X0388283
X0392614
X0396945
X0401276
Y0036591
X0396945
X0392614
X0388283
Y0032260
X0392614
X0396945
X0401276
Y0027929
X0396945
Y0023598
X0392614
Y0027929
X0388283
Y0023598
X0427260Y0017784
Y0014634
T03
X0312874Y0044895
X0322873Y0044894
X0332874Y0044893
X0332874Y0054893
X0322874Y0054894
X0312874Y0054895
T05
X0287402Y0102362
X0301181Y0116142
X0273622
T06
X0533283Y0095878
X0539559Y0108910
X0539559Y0123373
X0533284Y0136405
X0521976Y0145423
X0507875Y0148642
X0493774Y0145424
X0482465Y0136407
X0476189Y0123375
X0476189Y0108912
X0482463Y0095880
X0507874Y0083642
X0521975Y0086861
X0411236Y0095878
X0417512Y0108909
X0417512Y0123373
X0411237Y0136405
X0399929Y0145423
X0385828Y0148642
X0371727Y0145424
X0385827Y0083642
X0399928Y0086860
X0360416Y0095880
X0354141Y0108912
X0354142Y0123375
X0360418Y0136406
X0214386Y0136405
X0220662Y0123373
X0220661Y0108909
X0214386Y0095878
X0203078Y0086860
X0188976Y0083642
X0163566Y0095880
X0157291Y0108912
X0157292Y0123375
X0163568Y0136406
X0174876Y0145424
X0188978Y0148642
X0203079Y0145423
X0092339Y0136405
X0098614Y0123373
X0098614Y0108909
X0092339Y0095878
X0081030Y0086860
X0066929Y0083642
X0066930Y0148642
X0081031Y0145423
X0052829Y0145424
X0041521Y0136406
X0035244Y0123375
X0035244Y0108912
X0041518Y0095880
T07
X0015748Y0015748
X0559055
Y0157480
X0015748
M30
