G04*
G04 #@! TF.GenerationSoftware,Altium Limited,Altium Designer,18.1.7 (191)*
G04*
G04 Layer_Color=16711935*
%FSAX25Y25*%
%MOIN*%
G70*
G01*
G75*
%ADD48O,0.06706X0.10642*%
%ADD49C,0.06706*%
%ADD50R,0.06706X0.06706*%
%ADD51O,0.07887X0.08674*%
G04:AMPARAMS|DCode=52|XSize=78.87mil|YSize=86.74mil|CornerRadius=0mil|HoleSize=0mil|Usage=FLASHONLY|Rotation=25.714|XOffset=0mil|YOffset=0mil|HoleType=Round|Shape=Round|*
%AMOVALD52*
21,1,0.00787,0.07887,0.00000,0.00000,115.7*
1,1,0.07887,0.00171,-0.00355*
1,1,0.07887,-0.00171,0.00355*
%
%ADD52OVALD52*%

G04:AMPARAMS|DCode=53|XSize=78.87mil|YSize=86.74mil|CornerRadius=0mil|HoleSize=0mil|Usage=FLASHONLY|Rotation=51.428|XOffset=0mil|YOffset=0mil|HoleType=Round|Shape=Round|*
%AMOVALD53*
21,1,0.00787,0.07887,0.00000,0.00000,141.4*
1,1,0.07887,0.00308,-0.00246*
1,1,0.07887,-0.00308,0.00246*
%
%ADD53OVALD53*%

G04:AMPARAMS|DCode=54|XSize=78.87mil|YSize=86.74mil|CornerRadius=0mil|HoleSize=0mil|Usage=FLASHONLY|Rotation=77.142|XOffset=0mil|YOffset=0mil|HoleType=Round|Shape=Round|*
%AMOVALD54*
21,1,0.00787,0.07887,0.00000,0.00000,167.1*
1,1,0.07887,0.00384,-0.00088*
1,1,0.07887,-0.00384,0.00088*
%
%ADD54OVALD54*%

G04:AMPARAMS|DCode=55|XSize=78.87mil|YSize=86.74mil|CornerRadius=0mil|HoleSize=0mil|Usage=FLASHONLY|Rotation=102.856|XOffset=0mil|YOffset=0mil|HoleType=Round|Shape=Round|*
%AMOVALD55*
21,1,0.00787,0.07887,0.00000,0.00000,192.9*
1,1,0.07887,0.00384,0.00088*
1,1,0.07887,-0.00384,-0.00088*
%
%ADD55OVALD55*%

G04:AMPARAMS|DCode=56|XSize=78.87mil|YSize=86.74mil|CornerRadius=0mil|HoleSize=0mil|Usage=FLASHONLY|Rotation=128.570|XOffset=0mil|YOffset=0mil|HoleType=Round|Shape=Round|*
%AMOVALD56*
21,1,0.00787,0.07887,0.00000,0.00000,218.6*
1,1,0.07887,0.00308,0.00246*
1,1,0.07887,-0.00308,-0.00246*
%
%ADD56OVALD56*%

G04:AMPARAMS|DCode=57|XSize=78.87mil|YSize=86.74mil|CornerRadius=0mil|HoleSize=0mil|Usage=FLASHONLY|Rotation=154.284|XOffset=0mil|YOffset=0mil|HoleType=Round|Shape=Round|*
%AMOVALD57*
21,1,0.00787,0.07887,0.00000,0.00000,244.3*
1,1,0.07887,0.00171,0.00355*
1,1,0.07887,-0.00171,-0.00355*
%
%ADD57OVALD57*%

%ADD58C,0.07493*%
%ADD59C,0.26772*%
D48*
X0291028Y0059055D02*
D03*
X0271028D02*
D03*
D49*
X0312874Y0044895D02*
D03*
X0332874Y0044893D02*
D03*
X0322873Y0044894D02*
D03*
X0332874Y0054893D02*
D03*
X0322874Y0054894D02*
D03*
D50*
X0312874Y0054895D02*
D03*
D51*
X0066929Y0083642D02*
D03*
X0066930Y0148642D02*
D03*
X0188976Y0083642D02*
D03*
X0188978Y0148642D02*
D03*
X0385827Y0083642D02*
D03*
X0385828Y0148642D02*
D03*
X0507874Y0083642D02*
D03*
X0507875Y0148642D02*
D03*
D52*
X0081030Y0086860D02*
D03*
X0052829Y0145424D02*
D03*
X0203078Y0086860D02*
D03*
X0174876Y0145424D02*
D03*
X0399928Y0086860D02*
D03*
X0371727Y0145424D02*
D03*
X0521975Y0086861D02*
D03*
X0493774Y0145424D02*
D03*
D53*
X0092339Y0095878D02*
D03*
X0041521Y0136406D02*
D03*
X0214386Y0095878D02*
D03*
X0163568Y0136406D02*
D03*
X0411236Y0095878D02*
D03*
X0360418Y0136406D02*
D03*
X0533283Y0095878D02*
D03*
X0482465Y0136407D02*
D03*
D54*
X0098614Y0108909D02*
D03*
X0035244Y0123375D02*
D03*
X0220661Y0108909D02*
D03*
X0157292Y0123375D02*
D03*
X0417512Y0108909D02*
D03*
X0354142Y0123375D02*
D03*
X0539559Y0108910D02*
D03*
X0476189Y0123375D02*
D03*
D55*
X0098614Y0123373D02*
D03*
X0035244Y0108912D02*
D03*
X0220662Y0123373D02*
D03*
X0157291Y0108912D02*
D03*
X0417512Y0123373D02*
D03*
X0354141Y0108912D02*
D03*
X0539559Y0123373D02*
D03*
X0476189Y0108912D02*
D03*
D56*
X0092339Y0136405D02*
D03*
X0041518Y0095880D02*
D03*
X0214386Y0136405D02*
D03*
X0163566Y0095880D02*
D03*
X0411237Y0136405D02*
D03*
X0360416Y0095880D02*
D03*
X0533284Y0136405D02*
D03*
X0482463Y0095880D02*
D03*
D57*
X0081031Y0145423D02*
D03*
X0203079D02*
D03*
X0399929D02*
D03*
X0521976Y0145423D02*
D03*
D58*
X0301181Y0116142D02*
D03*
X0287402Y0102362D02*
D03*
X0273622Y0116142D02*
D03*
D59*
X0015748Y0157480D02*
D03*
Y0015748D02*
D03*
X0559055D02*
D03*
Y0157480D02*
D03*
M02*
