G04*
G04 #@! TF.GenerationSoftware,Altium Limited,Altium Designer,18.1.7 (191)*
G04*
G04 Layer_Physical_Order=2*
G04 Layer_Color=16711680*
%FSAX25Y25*%
%MOIN*%
G70*
G01*
G75*
%ADD10C,0.01000*%
%ADD94C,0.00800*%
%ADD95C,0.01575*%
%ADD96C,0.02362*%
%ADD99C,0.01968*%
%ADD100O,0.05906X0.09843*%
%ADD101C,0.05906*%
%ADD102R,0.05906X0.05906*%
%ADD103O,0.07087X0.07874*%
G04:AMPARAMS|DCode=104|XSize=70.87mil|YSize=78.74mil|CornerRadius=0mil|HoleSize=0mil|Usage=FLASHONLY|Rotation=25.714|XOffset=0mil|YOffset=0mil|HoleType=Round|Shape=Round|*
%AMOVALD104*
21,1,0.00787,0.07087,0.00000,0.00000,115.7*
1,1,0.07087,0.00171,-0.00355*
1,1,0.07087,-0.00171,0.00355*
%
%ADD104OVALD104*%

G04:AMPARAMS|DCode=105|XSize=70.87mil|YSize=78.74mil|CornerRadius=0mil|HoleSize=0mil|Usage=FLASHONLY|Rotation=51.428|XOffset=0mil|YOffset=0mil|HoleType=Round|Shape=Round|*
%AMOVALD105*
21,1,0.00787,0.07087,0.00000,0.00000,141.4*
1,1,0.07087,0.00308,-0.00246*
1,1,0.07087,-0.00308,0.00246*
%
%ADD105OVALD105*%

G04:AMPARAMS|DCode=106|XSize=70.87mil|YSize=78.74mil|CornerRadius=0mil|HoleSize=0mil|Usage=FLASHONLY|Rotation=77.142|XOffset=0mil|YOffset=0mil|HoleType=Round|Shape=Round|*
%AMOVALD106*
21,1,0.00787,0.07087,0.00000,0.00000,167.1*
1,1,0.07087,0.00384,-0.00088*
1,1,0.07087,-0.00384,0.00088*
%
%ADD106OVALD106*%

G04:AMPARAMS|DCode=107|XSize=70.87mil|YSize=78.74mil|CornerRadius=0mil|HoleSize=0mil|Usage=FLASHONLY|Rotation=102.856|XOffset=0mil|YOffset=0mil|HoleType=Round|Shape=Round|*
%AMOVALD107*
21,1,0.00787,0.07087,0.00000,0.00000,192.9*
1,1,0.07087,0.00384,0.00088*
1,1,0.07087,-0.00384,-0.00088*
%
%ADD107OVALD107*%

G04:AMPARAMS|DCode=108|XSize=70.87mil|YSize=78.74mil|CornerRadius=0mil|HoleSize=0mil|Usage=FLASHONLY|Rotation=128.570|XOffset=0mil|YOffset=0mil|HoleType=Round|Shape=Round|*
%AMOVALD108*
21,1,0.00787,0.07087,0.00000,0.00000,218.6*
1,1,0.07087,0.00308,0.00246*
1,1,0.07087,-0.00308,-0.00246*
%
%ADD108OVALD108*%

G04:AMPARAMS|DCode=109|XSize=70.87mil|YSize=78.74mil|CornerRadius=0mil|HoleSize=0mil|Usage=FLASHONLY|Rotation=154.284|XOffset=0mil|YOffset=0mil|HoleType=Round|Shape=Round|*
%AMOVALD109*
21,1,0.00787,0.07087,0.00000,0.00000,244.3*
1,1,0.07087,0.00171,0.00355*
1,1,0.07087,-0.00171,-0.00355*
%
%ADD109OVALD109*%

%ADD110C,0.06693*%
%ADD111C,0.25984*%
%ADD112C,0.03150*%
G36*
X0207489Y0148442D02*
X0207269Y0148217D01*
X0206778Y0147650D01*
X0206670Y0147498D01*
X0206591Y0147364D01*
X0206541Y0147248D01*
X0206518Y0147150D01*
X0206524Y0147071D01*
X0206557Y0147009D01*
X0204743Y0148978D01*
X0204800Y0148940D01*
X0204874Y0148930D01*
X0204965Y0148946D01*
X0205075Y0148991D01*
X0205201Y0149062D01*
X0205346Y0149162D01*
X0205507Y0149288D01*
X0205883Y0149625D01*
X0206098Y0149834D01*
X0207489Y0148442D01*
D02*
G37*
G36*
X0085442D02*
X0085222Y0148217D01*
X0084731Y0147650D01*
X0084623Y0147498D01*
X0084544Y0147364D01*
X0084493Y0147248D01*
X0084471Y0147150D01*
X0084476Y0147071D01*
X0084510Y0147009D01*
X0082696Y0148978D01*
X0082752Y0148940D01*
X0082827Y0148930D01*
X0082918Y0148946D01*
X0083027Y0148991D01*
X0083154Y0149062D01*
X0083298Y0149162D01*
X0083460Y0149288D01*
X0083836Y0149625D01*
X0084050Y0149834D01*
X0085442Y0148442D01*
D02*
G37*
G36*
X0376229Y0148535D02*
X0375926Y0148217D01*
X0375456Y0147637D01*
X0375289Y0147373D01*
X0375168Y0147127D01*
X0375092Y0146899D01*
X0375062Y0146689D01*
X0375077Y0146496D01*
X0375138Y0146321D01*
X0375244Y0146165D01*
X0372660Y0149132D01*
X0372799Y0149008D01*
X0372958Y0148933D01*
X0373138Y0148905D01*
X0373339Y0148926D01*
X0373560Y0148995D01*
X0373802Y0149112D01*
X0374064Y0149278D01*
X0374347Y0149492D01*
X0374651Y0149753D01*
X0374974Y0150063D01*
X0376229Y0148535D01*
D02*
G37*
G36*
X0179379D02*
X0179076Y0148217D01*
X0178606Y0147637D01*
X0178439Y0147373D01*
X0178318Y0147127D01*
X0178242Y0146899D01*
X0178212Y0146689D01*
X0178227Y0146496D01*
X0178288Y0146321D01*
X0178394Y0146165D01*
X0175809Y0149132D01*
X0175949Y0149008D01*
X0176108Y0148933D01*
X0176288Y0148905D01*
X0176489Y0148926D01*
X0176710Y0148995D01*
X0176952Y0149112D01*
X0177214Y0149278D01*
X0177497Y0149492D01*
X0177800Y0149753D01*
X0178124Y0150063D01*
X0179379Y0148535D01*
D02*
G37*
G36*
X0057332D02*
X0057029Y0148217D01*
X0056559Y0147637D01*
X0056392Y0147373D01*
X0056270Y0147127D01*
X0056195Y0146899D01*
X0056164Y0146689D01*
X0056180Y0146496D01*
X0056240Y0146321D01*
X0056346Y0146165D01*
X0053762Y0149132D01*
X0053901Y0149008D01*
X0054061Y0148933D01*
X0054241Y0148905D01*
X0054441Y0148926D01*
X0054663Y0148995D01*
X0054904Y0149112D01*
X0055167Y0149278D01*
X0055449Y0149492D01*
X0055753Y0149753D01*
X0056077Y0150063D01*
X0057332Y0148535D01*
D02*
G37*
G36*
X0490724Y0149880D02*
X0491324Y0149391D01*
X0491592Y0149219D01*
X0491839Y0149096D01*
X0492066Y0149021D01*
X0492271Y0148995D01*
X0492456Y0149018D01*
X0492620Y0149090D01*
X0492762Y0149210D01*
X0490111Y0146312D01*
X0490219Y0146466D01*
X0490280Y0146641D01*
X0490293Y0146835D01*
X0490259Y0147049D01*
X0490177Y0147283D01*
X0490047Y0147537D01*
X0489870Y0147811D01*
X0489645Y0148105D01*
X0489373Y0148419D01*
X0489053Y0148753D01*
X0490392Y0150198D01*
X0490724Y0149880D01*
D02*
G37*
G36*
X0368676Y0149880D02*
X0369276Y0149390D01*
X0369545Y0149219D01*
X0369792Y0149095D01*
X0370019Y0149021D01*
X0370224Y0148995D01*
X0370409Y0149018D01*
X0370572Y0149089D01*
X0370715Y0149209D01*
X0368064Y0146312D01*
X0368172Y0146466D01*
X0368233Y0146641D01*
X0368246Y0146835D01*
X0368212Y0147049D01*
X0368130Y0147283D01*
X0368000Y0147537D01*
X0367823Y0147811D01*
X0367598Y0148105D01*
X0367325Y0148419D01*
X0367005Y0148753D01*
X0368345Y0150197D01*
X0368676Y0149880D01*
D02*
G37*
G36*
X0171826D02*
X0172426Y0149390D01*
X0172695Y0149219D01*
X0172942Y0149095D01*
X0173169Y0149021D01*
X0173374Y0148995D01*
X0173558Y0149018D01*
X0173722Y0149089D01*
X0173865Y0149209D01*
X0171213Y0146312D01*
X0171322Y0146466D01*
X0171382Y0146641D01*
X0171396Y0146835D01*
X0171361Y0147049D01*
X0171279Y0147283D01*
X0171150Y0147537D01*
X0170972Y0147811D01*
X0170747Y0148105D01*
X0170475Y0148419D01*
X0170155Y0148753D01*
X0171495Y0150197D01*
X0171826Y0149880D01*
D02*
G37*
G36*
X0403347Y0147015D02*
X0403398Y0146887D01*
X0403492Y0146775D01*
X0403629Y0146677D01*
X0403809Y0146595D01*
X0404033Y0146527D01*
X0404299Y0146475D01*
X0404609Y0146437D01*
X0404962Y0146415D01*
X0405358Y0146407D01*
X0405339Y0144439D01*
X0404910Y0144431D01*
X0404184Y0144371D01*
X0403887Y0144318D01*
X0403633Y0144251D01*
X0403423Y0144168D01*
X0403257Y0144071D01*
X0403134Y0143958D01*
X0403054Y0143831D01*
X0403019Y0143688D01*
X0403339Y0147158D01*
X0403347Y0147015D01*
D02*
G37*
G36*
X0525288Y0147201D02*
X0525346Y0147034D01*
X0525454Y0146887D01*
X0525611Y0146760D01*
X0525818Y0146652D01*
X0526074Y0146564D01*
X0526380Y0146495D01*
X0526736Y0146447D01*
X0527142Y0146417D01*
X0527597Y0146407D01*
X0527386Y0144439D01*
X0526937Y0144429D01*
X0526177Y0144351D01*
X0525865Y0144282D01*
X0525598Y0144194D01*
X0525377Y0144087D01*
X0525201Y0143960D01*
X0525071Y0143813D01*
X0524986Y0143647D01*
X0524947Y0143461D01*
X0525280Y0147387D01*
X0525288Y0147201D01*
D02*
G37*
G36*
X0520965Y0141638D02*
X0520822Y0141758D01*
X0520659Y0141829D01*
X0520474Y0141852D01*
X0520268Y0141826D01*
X0520042Y0141751D01*
X0519795Y0141628D01*
X0519526Y0141456D01*
X0519237Y0141236D01*
X0518926Y0140967D01*
X0518595Y0140649D01*
X0517255Y0142094D01*
X0517575Y0142427D01*
X0518072Y0143035D01*
X0518249Y0143309D01*
X0518379Y0143563D01*
X0518461Y0143798D01*
X0518496Y0144012D01*
X0518482Y0144206D01*
X0518422Y0144380D01*
X0518313Y0144535D01*
X0520965Y0141638D01*
D02*
G37*
G36*
X0398917Y0141637D02*
X0398775Y0141757D01*
X0398611Y0141829D01*
X0398427Y0141851D01*
X0398221Y0141826D01*
X0397994Y0141751D01*
X0397747Y0141628D01*
X0397479Y0141456D01*
X0397189Y0141236D01*
X0396879Y0140967D01*
X0396547Y0140649D01*
X0395208Y0142094D01*
X0395528Y0142427D01*
X0396025Y0143035D01*
X0396202Y0143309D01*
X0396332Y0143563D01*
X0396414Y0143798D01*
X0396448Y0144012D01*
X0396435Y0144206D01*
X0396374Y0144380D01*
X0396266Y0144535D01*
X0398917Y0141637D01*
D02*
G37*
G36*
X0202067D02*
X0201924Y0141757D01*
X0201761Y0141829D01*
X0201576Y0141851D01*
X0201371Y0141826D01*
X0201144Y0141751D01*
X0200897Y0141628D01*
X0200628Y0141456D01*
X0200339Y0141236D01*
X0200028Y0140967D01*
X0199697Y0140649D01*
X0198357Y0142094D01*
X0198677Y0142427D01*
X0199174Y0143035D01*
X0199352Y0143309D01*
X0199481Y0143563D01*
X0199563Y0143798D01*
X0199598Y0144012D01*
X0199585Y0144206D01*
X0199524Y0144380D01*
X0199416Y0144535D01*
X0202067Y0141637D01*
D02*
G37*
G36*
X0479431Y0140847D02*
X0480042Y0140346D01*
X0480316Y0140169D01*
X0480570Y0140039D01*
X0480803Y0139958D01*
X0481016Y0139925D01*
X0481208Y0139941D01*
X0481379Y0140005D01*
X0481530Y0140117D01*
X0478714Y0137384D01*
X0478830Y0137530D01*
X0478897Y0137698D01*
X0478916Y0137886D01*
X0478887Y0138095D01*
X0478808Y0138326D01*
X0478682Y0138577D01*
X0478507Y0138849D01*
X0478283Y0139142D01*
X0478010Y0139456D01*
X0477689Y0139790D01*
X0479095Y0141169D01*
X0479431Y0140847D01*
D02*
G37*
G36*
X0357384Y0140846D02*
X0357995Y0140346D01*
X0358269Y0140168D01*
X0358523Y0140039D01*
X0358756Y0139958D01*
X0358969Y0139925D01*
X0359161Y0139941D01*
X0359332Y0140004D01*
X0359483Y0140116D01*
X0356667Y0137383D01*
X0356783Y0137530D01*
X0356850Y0137698D01*
X0356869Y0137886D01*
X0356839Y0138095D01*
X0356761Y0138326D01*
X0356635Y0138577D01*
X0356459Y0138849D01*
X0356236Y0139142D01*
X0355963Y0139455D01*
X0355642Y0139790D01*
X0357047Y0141169D01*
X0357384Y0140846D01*
D02*
G37*
G36*
X0160533D02*
X0161144Y0140346D01*
X0161419Y0140168D01*
X0161673Y0140039D01*
X0161906Y0139958D01*
X0162118Y0139925D01*
X0162310Y0139941D01*
X0162482Y0140004D01*
X0162632Y0140116D01*
X0159816Y0137383D01*
X0159932Y0137530D01*
X0160000Y0137698D01*
X0160019Y0137886D01*
X0159989Y0138095D01*
X0159911Y0138326D01*
X0159784Y0138577D01*
X0159609Y0138849D01*
X0159385Y0139142D01*
X0159113Y0139455D01*
X0158792Y0139790D01*
X0160197Y0141169D01*
X0160533Y0140846D01*
D02*
G37*
G36*
X0044622Y0138182D02*
X0044709Y0138016D01*
X0044844Y0137870D01*
X0045026Y0137742D01*
X0045255Y0137635D01*
X0045532Y0137547D01*
X0045856Y0137478D01*
X0046227Y0137430D01*
X0046646Y0137400D01*
X0047112Y0137391D01*
X0047251Y0135422D01*
X0046792Y0135412D01*
X0046023Y0135334D01*
X0045713Y0135266D01*
X0045454Y0135178D01*
X0045245Y0135070D01*
X0045086Y0134943D01*
X0044977Y0134796D01*
X0044918Y0134630D01*
X0044910Y0134444D01*
X0044581Y0138368D01*
X0044622Y0138182D01*
D02*
G37*
G36*
X0536682Y0138181D02*
X0536741Y0138015D01*
X0536850Y0137868D01*
X0537009Y0137741D01*
X0537218Y0137634D01*
X0537477Y0137546D01*
X0537786Y0137477D01*
X0538146Y0137428D01*
X0538555Y0137399D01*
X0539015Y0137389D01*
X0538876Y0135421D01*
X0538410Y0135411D01*
X0537619Y0135333D01*
X0537295Y0135264D01*
X0537018Y0135176D01*
X0536789Y0135069D01*
X0536607Y0134942D01*
X0536472Y0134795D01*
X0536385Y0134629D01*
X0536345Y0134443D01*
X0536673Y0138367D01*
X0536682Y0138181D01*
D02*
G37*
G36*
X0414635Y0138181D02*
X0414693Y0138014D01*
X0414802Y0137868D01*
X0414961Y0137741D01*
X0415170Y0137633D01*
X0415430Y0137545D01*
X0415739Y0137477D01*
X0416098Y0137428D01*
X0416508Y0137399D01*
X0416968Y0137389D01*
X0416828Y0135420D01*
X0416362Y0135410D01*
X0415572Y0135332D01*
X0415248Y0135264D01*
X0414971Y0135176D01*
X0414742Y0135068D01*
X0414560Y0134941D01*
X0414425Y0134795D01*
X0414338Y0134628D01*
X0414298Y0134443D01*
X0414626Y0138366D01*
X0414635Y0138181D01*
D02*
G37*
G36*
X0217784D02*
X0217843Y0138014D01*
X0217952Y0137868D01*
X0218111Y0137741D01*
X0218320Y0137633D01*
X0218579Y0137545D01*
X0218889Y0137477D01*
X0219248Y0137428D01*
X0219658Y0137399D01*
X0220117Y0137389D01*
X0219978Y0135420D01*
X0219512Y0135410D01*
X0218722Y0135332D01*
X0218398Y0135264D01*
X0218121Y0135176D01*
X0217892Y0135068D01*
X0217709Y0134941D01*
X0217575Y0134795D01*
X0217487Y0134628D01*
X0217447Y0134443D01*
X0217776Y0138366D01*
X0217784Y0138181D01*
D02*
G37*
G36*
X0095737D02*
X0095796Y0138014D01*
X0095905Y0137868D01*
X0096064Y0137741D01*
X0096273Y0137633D01*
X0096532Y0137545D01*
X0096841Y0137477D01*
X0097201Y0137428D01*
X0097610Y0137399D01*
X0098070Y0137389D01*
X0097931Y0135420D01*
X0097465Y0135410D01*
X0096675Y0135332D01*
X0096350Y0135264D01*
X0096074Y0135176D01*
X0095844Y0135068D01*
X0095662Y0134941D01*
X0095527Y0134795D01*
X0095440Y0134628D01*
X0095400Y0134443D01*
X0095728Y0138366D01*
X0095737Y0138181D01*
D02*
G37*
G36*
X0167309Y0136425D02*
X0167298Y0136258D01*
X0167347Y0136111D01*
X0167455Y0135983D01*
X0167621Y0135875D01*
X0167847Y0135787D01*
X0168131Y0135718D01*
X0168474Y0135669D01*
X0168876Y0135640D01*
X0169337Y0135630D01*
X0168339Y0133661D01*
X0167976Y0133655D01*
X0167308Y0133607D01*
X0167004Y0133564D01*
X0166454Y0133443D01*
X0166209Y0133364D01*
X0165983Y0133273D01*
X0165778Y0133170D01*
X0165592Y0133055D01*
X0167378Y0136612D01*
X0167309Y0136425D01*
D02*
G37*
G36*
X0364137Y0135982D02*
X0364093Y0135815D01*
X0364115Y0135667D01*
X0364203Y0135539D01*
X0364356Y0135431D01*
X0364575Y0135343D01*
X0364859Y0135274D01*
X0365209Y0135224D01*
X0365624Y0135195D01*
X0366105Y0135185D01*
X0364645Y0133217D01*
X0364288Y0133212D01*
X0363313Y0133147D01*
X0363021Y0133107D01*
X0362485Y0133003D01*
X0362241Y0132937D01*
X0362014Y0132863D01*
X0361803Y0132780D01*
X0364246Y0136169D01*
X0364137Y0135982D01*
D02*
G37*
G36*
X0532349Y0132695D02*
X0532198Y0132807D01*
X0532027Y0132870D01*
X0531835Y0132886D01*
X0531622Y0132853D01*
X0531389Y0132772D01*
X0531135Y0132643D01*
X0530861Y0132465D01*
X0530566Y0132239D01*
X0530250Y0131965D01*
X0529914Y0131642D01*
X0528508Y0133021D01*
X0528829Y0133355D01*
X0529325Y0133962D01*
X0529501Y0134234D01*
X0529627Y0134485D01*
X0529705Y0134715D01*
X0529735Y0134925D01*
X0529716Y0135113D01*
X0529649Y0135281D01*
X0529533Y0135427D01*
X0532349Y0132695D01*
D02*
G37*
G36*
X0410301Y0132694D02*
X0410151Y0132807D01*
X0409979Y0132870D01*
X0409788Y0132886D01*
X0409575Y0132853D01*
X0409342Y0132772D01*
X0409088Y0132642D01*
X0408813Y0132465D01*
X0408518Y0132239D01*
X0408203Y0131965D01*
X0407866Y0131642D01*
X0406461Y0133021D01*
X0406782Y0133355D01*
X0407278Y0133962D01*
X0407453Y0134234D01*
X0407580Y0134485D01*
X0407658Y0134715D01*
X0407688Y0134925D01*
X0407669Y0135113D01*
X0407601Y0135281D01*
X0407485Y0135427D01*
X0410301Y0132694D01*
D02*
G37*
G36*
X0213451D02*
X0213300Y0132807D01*
X0213129Y0132870D01*
X0212937Y0132886D01*
X0212724Y0132853D01*
X0212491Y0132772D01*
X0212237Y0132642D01*
X0211963Y0132465D01*
X0211668Y0132239D01*
X0211352Y0131965D01*
X0211016Y0131642D01*
X0209611Y0133021D01*
X0209931Y0133355D01*
X0210428Y0133962D01*
X0210603Y0134234D01*
X0210730Y0134485D01*
X0210808Y0134715D01*
X0210837Y0134925D01*
X0210818Y0135113D01*
X0210751Y0135281D01*
X0210635Y0135427D01*
X0213451Y0132694D01*
D02*
G37*
G36*
X0039939Y0126678D02*
X0039621Y0126347D01*
X0039135Y0125749D01*
X0038965Y0125483D01*
X0038846Y0125239D01*
X0038775Y0125016D01*
X0038754Y0124815D01*
X0038783Y0124636D01*
X0038861Y0124479D01*
X0038988Y0124344D01*
X0035938Y0126844D01*
X0036100Y0126743D01*
X0036281Y0126689D01*
X0036480Y0126681D01*
X0036699Y0126720D01*
X0036937Y0126806D01*
X0037194Y0126938D01*
X0037471Y0127118D01*
X0037766Y0127344D01*
X0038080Y0127617D01*
X0038414Y0127937D01*
X0039939Y0126678D01*
D02*
G37*
G36*
X0357606Y0124917D02*
X0357673Y0124800D01*
X0357783Y0124697D01*
X0357935Y0124607D01*
X0358130Y0124531D01*
X0358366Y0124469D01*
X0358646Y0124421D01*
X0358967Y0124387D01*
X0359737Y0124359D01*
X0359737Y0122391D01*
X0359342Y0122384D01*
X0358677Y0122329D01*
X0358407Y0122281D01*
X0358180Y0122219D01*
X0357995Y0122143D01*
X0357852Y0122054D01*
X0357750Y0121951D01*
X0357691Y0121834D01*
X0357674Y0121704D01*
X0357581Y0125048D01*
X0357606Y0124917D01*
D02*
G37*
G36*
X0160527Y0125211D02*
X0160609Y0125045D01*
X0160739Y0124898D01*
X0160917Y0124771D01*
X0161144Y0124664D01*
X0161418Y0124576D01*
X0161740Y0124507D01*
X0162110Y0124459D01*
X0162529Y0124429D01*
X0162996Y0124420D01*
X0163088Y0122451D01*
X0162624Y0122441D01*
X0161845Y0122363D01*
X0161530Y0122294D01*
X0161266Y0122206D01*
X0161051Y0122099D01*
X0160887Y0121972D01*
X0160772Y0121825D01*
X0160707Y0121659D01*
X0160692Y0121473D01*
X0160494Y0125397D01*
X0160527Y0125211D01*
D02*
G37*
G36*
X0472941Y0121414D02*
X0472911Y0121600D01*
X0472832Y0121766D01*
X0472706Y0121913D01*
X0472531Y0122040D01*
X0472308Y0122147D01*
X0472037Y0122235D01*
X0471717Y0122303D01*
X0471349Y0122352D01*
X0470933Y0122381D01*
X0470469Y0122391D01*
X0470413Y0124360D01*
X0470876Y0124370D01*
X0471655Y0124448D01*
X0471970Y0124516D01*
X0472235Y0124604D01*
X0472452Y0124712D01*
X0472619Y0124839D01*
X0472736Y0124986D01*
X0472804Y0125152D01*
X0472823Y0125338D01*
X0472941Y0121414D01*
D02*
G37*
G36*
X0350893Y0121414D02*
X0350864Y0121600D01*
X0350785Y0121766D01*
X0350659Y0121912D01*
X0350484Y0122039D01*
X0350261Y0122147D01*
X0349990Y0122235D01*
X0349670Y0122303D01*
X0349302Y0122352D01*
X0348886Y0122381D01*
X0348422Y0122391D01*
X0348366Y0124360D01*
X0348829Y0124369D01*
X0349607Y0124448D01*
X0349922Y0124516D01*
X0350188Y0124604D01*
X0350405Y0124712D01*
X0350571Y0124839D01*
X0350689Y0124986D01*
X0350757Y0125152D01*
X0350776Y0125338D01*
X0350893Y0121414D01*
D02*
G37*
G36*
X0154043D02*
X0154013Y0121600D01*
X0153935Y0121766D01*
X0153808Y0121912D01*
X0153634Y0122039D01*
X0153410Y0122147D01*
X0153139Y0122235D01*
X0152820Y0122303D01*
X0152452Y0122352D01*
X0152036Y0122381D01*
X0151571Y0122391D01*
X0151516Y0124360D01*
X0151979Y0124369D01*
X0152757Y0124448D01*
X0153072Y0124516D01*
X0153338Y0124604D01*
X0153554Y0124712D01*
X0153721Y0124839D01*
X0153839Y0124986D01*
X0153907Y0125152D01*
X0153926Y0125338D01*
X0154043Y0121414D01*
D02*
G37*
G36*
X0420897Y0125150D02*
X0420965Y0124984D01*
X0421082Y0124837D01*
X0421249Y0124710D01*
X0421466Y0124602D01*
X0421731Y0124514D01*
X0422047Y0124446D01*
X0422411Y0124397D01*
X0422825Y0124367D01*
X0423288Y0124358D01*
X0423232Y0122389D01*
X0422768Y0122379D01*
X0421984Y0122301D01*
X0421665Y0122233D01*
X0421393Y0122145D01*
X0421170Y0122037D01*
X0420996Y0121910D01*
X0420869Y0121764D01*
X0420791Y0121598D01*
X0420761Y0121412D01*
X0420878Y0125336D01*
X0420897Y0125150D01*
D02*
G37*
G36*
X0224046Y0125150D02*
X0224115Y0124983D01*
X0224232Y0124837D01*
X0224399Y0124709D01*
X0224615Y0124602D01*
X0224881Y0124514D01*
X0225196Y0124445D01*
X0225561Y0124396D01*
X0225974Y0124367D01*
X0226438Y0124357D01*
X0226382Y0122389D01*
X0225918Y0122379D01*
X0225134Y0122301D01*
X0224814Y0122232D01*
X0224543Y0122145D01*
X0224320Y0122037D01*
X0224145Y0121910D01*
X0224018Y0121764D01*
X0223940Y0121598D01*
X0223910Y0121412D01*
X0224027Y0125336D01*
X0224046Y0125150D01*
D02*
G37*
G36*
X0101999D02*
X0102067Y0124983D01*
X0102185Y0124837D01*
X0102352Y0124709D01*
X0102568Y0124602D01*
X0102834Y0124514D01*
X0103149Y0124445D01*
X0103513Y0124396D01*
X0103927Y0124367D01*
X0104390Y0124357D01*
X0104335Y0122389D01*
X0103870Y0122379D01*
X0103086Y0122301D01*
X0102767Y0122232D01*
X0102496Y0122145D01*
X0102272Y0122037D01*
X0102098Y0121910D01*
X0101971Y0121764D01*
X0101893Y0121598D01*
X0101863Y0121412D01*
X0101980Y0125336D01*
X0101999Y0125150D01*
D02*
G37*
G36*
X0536684Y0120788D02*
X0536624Y0120973D01*
X0536519Y0121139D01*
X0536367Y0121286D01*
X0536169Y0121413D01*
X0535924Y0121520D01*
X0535634Y0121608D01*
X0535297Y0121676D01*
X0534914Y0121725D01*
X0534485Y0121754D01*
X0534009Y0121764D01*
X0533698Y0123733D01*
X0534160Y0123742D01*
X0534925Y0123821D01*
X0535229Y0123889D01*
X0535481Y0123977D01*
X0535680Y0124085D01*
X0535827Y0124212D01*
X0535922Y0124359D01*
X0535964Y0124525D01*
X0535954Y0124712D01*
X0536684Y0120788D01*
D02*
G37*
G36*
X0218616Y0120182D02*
X0218511Y0120340D01*
X0218380Y0120446D01*
X0218224Y0120497D01*
X0218041Y0120495D01*
X0217834Y0120440D01*
X0217600Y0120331D01*
X0217341Y0120169D01*
X0217056Y0119953D01*
X0216745Y0119684D01*
X0216408Y0119361D01*
X0215420Y0121157D01*
X0215660Y0121410D01*
X0215876Y0121668D01*
X0216070Y0121930D01*
X0216241Y0122196D01*
X0216388Y0122466D01*
X0216513Y0122740D01*
X0216614Y0123019D01*
X0216692Y0123302D01*
X0216747Y0123589D01*
X0216780Y0123880D01*
X0218616Y0120182D01*
D02*
G37*
G36*
X0416281Y0119869D02*
X0416177Y0119932D01*
X0416053Y0119957D01*
X0415908Y0119945D01*
X0415743Y0119895D01*
X0415559Y0119807D01*
X0415354Y0119682D01*
X0415129Y0119518D01*
X0414884Y0119317D01*
X0414333Y0118802D01*
X0412941Y0120194D01*
X0413199Y0120461D01*
X0413603Y0120936D01*
X0413750Y0121144D01*
X0413860Y0121333D01*
X0413932Y0121503D01*
X0413968Y0121653D01*
X0413966Y0121784D01*
X0413927Y0121895D01*
X0413851Y0121987D01*
X0416281Y0119869D01*
D02*
G37*
G36*
X0543176Y0122270D02*
X0543098Y0122112D01*
X0543069Y0121933D01*
X0543090Y0121732D01*
X0543161Y0121510D01*
X0543281Y0121265D01*
X0543450Y0120999D01*
X0543668Y0120712D01*
X0543936Y0120402D01*
X0544254Y0120071D01*
X0542729Y0118812D01*
X0542395Y0119131D01*
X0541786Y0119631D01*
X0541509Y0119810D01*
X0541252Y0119943D01*
X0541014Y0120029D01*
X0540795Y0120068D01*
X0540596Y0120060D01*
X0540415Y0120006D01*
X0540253Y0119904D01*
X0543303Y0122405D01*
X0543176Y0122270D01*
D02*
G37*
G36*
X0040006Y0112282D02*
X0039687Y0111949D01*
X0039197Y0111348D01*
X0039025Y0111080D01*
X0038903Y0110833D01*
X0038830Y0110608D01*
X0038806Y0110404D01*
X0038831Y0110222D01*
X0038906Y0110061D01*
X0039030Y0109922D01*
X0036056Y0112497D01*
X0036214Y0112392D01*
X0036392Y0112335D01*
X0036589Y0112326D01*
X0036807Y0112364D01*
X0037044Y0112449D01*
X0037301Y0112581D01*
X0037577Y0112761D01*
X0037874Y0112989D01*
X0038190Y0113264D01*
X0038526Y0113586D01*
X0040006Y0112282D01*
D02*
G37*
G36*
X0162566Y0109812D02*
X0162300Y0109541D01*
X0161478Y0108598D01*
X0161332Y0108397D01*
X0161113Y0108038D01*
X0161039Y0107879D01*
X0160990Y0107734D01*
X0160124Y0111547D01*
X0160190Y0111348D01*
X0160286Y0111207D01*
X0160412Y0111125D01*
X0160568Y0111099D01*
X0160753Y0111131D01*
X0160968Y0111221D01*
X0161213Y0111368D01*
X0161487Y0111573D01*
X0161792Y0111835D01*
X0162126Y0112155D01*
X0162566Y0109812D01*
D02*
G37*
G36*
X0360147Y0109893D02*
X0357529Y0107111D01*
X0357276Y0111199D01*
X0357310Y0110968D01*
X0357379Y0110800D01*
X0357483Y0110695D01*
X0357622Y0110653D01*
X0357796Y0110674D01*
X0358006Y0110758D01*
X0358250Y0110905D01*
X0358530Y0111115D01*
X0358845Y0111388D01*
X0359195Y0111724D01*
X0360147Y0109893D01*
D02*
G37*
G36*
X0350775Y0106949D02*
X0350756Y0107135D01*
X0350688Y0107301D01*
X0350571Y0107448D01*
X0350404Y0107575D01*
X0350187Y0107683D01*
X0349922Y0107771D01*
X0349607Y0107840D01*
X0349242Y0107888D01*
X0348828Y0107918D01*
X0348365Y0107928D01*
X0348421Y0109896D01*
X0348885Y0109906D01*
X0349669Y0109984D01*
X0349989Y0110052D01*
X0350260Y0110140D01*
X0350483Y0110248D01*
X0350658Y0110375D01*
X0350785Y0110521D01*
X0350863Y0110687D01*
X0350893Y0110873D01*
X0350775Y0106949D01*
D02*
G37*
G36*
X0472823Y0106949D02*
X0472804Y0107135D01*
X0472736Y0107301D01*
X0472618Y0107448D01*
X0472451Y0107575D01*
X0472235Y0107683D01*
X0471969Y0107771D01*
X0471654Y0107839D01*
X0471290Y0107888D01*
X0470876Y0107917D01*
X0470413Y0107927D01*
X0470468Y0109896D01*
X0470932Y0109906D01*
X0471716Y0109984D01*
X0472036Y0110052D01*
X0472307Y0110140D01*
X0472530Y0110248D01*
X0472705Y0110374D01*
X0472831Y0110521D01*
X0472910Y0110687D01*
X0472940Y0110873D01*
X0472823Y0106949D01*
D02*
G37*
G36*
X0153925D02*
X0153906Y0107135D01*
X0153838Y0107301D01*
X0153720Y0107448D01*
X0153553Y0107575D01*
X0153337Y0107683D01*
X0153071Y0107771D01*
X0152756Y0107839D01*
X0152392Y0107888D01*
X0151978Y0107917D01*
X0151515Y0107927D01*
X0151571Y0109896D01*
X0152035Y0109906D01*
X0152819Y0109984D01*
X0153138Y0110052D01*
X0153410Y0110140D01*
X0153633Y0110248D01*
X0153808Y0110374D01*
X0153934Y0110521D01*
X0154012Y0110687D01*
X0154042Y0110873D01*
X0153925Y0106949D01*
D02*
G37*
G36*
X0536311Y0106948D02*
X0536281Y0107134D01*
X0536202Y0107300D01*
X0536076Y0107447D01*
X0535901Y0107574D01*
X0535678Y0107681D01*
X0535407Y0107769D01*
X0535087Y0107837D01*
X0534719Y0107886D01*
X0534303Y0107916D01*
X0533839Y0107925D01*
X0533783Y0109894D01*
X0534246Y0109904D01*
X0535024Y0109982D01*
X0535340Y0110050D01*
X0535605Y0110138D01*
X0535822Y0110246D01*
X0535989Y0110373D01*
X0536106Y0110520D01*
X0536174Y0110686D01*
X0536193Y0110872D01*
X0536311Y0106948D01*
D02*
G37*
G36*
X0414263Y0106948D02*
X0414233Y0107134D01*
X0414155Y0107300D01*
X0414029Y0107446D01*
X0413854Y0107573D01*
X0413631Y0107681D01*
X0413359Y0107769D01*
X0413040Y0107837D01*
X0412672Y0107886D01*
X0412256Y0107915D01*
X0411792Y0107925D01*
X0411736Y0109894D01*
X0412199Y0109903D01*
X0412977Y0109982D01*
X0413292Y0110050D01*
X0413558Y0110138D01*
X0413774Y0110246D01*
X0413941Y0110373D01*
X0414059Y0110520D01*
X0414127Y0110686D01*
X0414146Y0110872D01*
X0414263Y0106948D01*
D02*
G37*
G36*
X0217413D02*
X0217383Y0107134D01*
X0217305Y0107300D01*
X0217178Y0107446D01*
X0217003Y0107573D01*
X0216780Y0107681D01*
X0216509Y0107769D01*
X0216190Y0107837D01*
X0215822Y0107886D01*
X0215406Y0107915D01*
X0214941Y0107925D01*
X0214885Y0109894D01*
X0215349Y0109903D01*
X0216127Y0109982D01*
X0216442Y0110050D01*
X0216708Y0110138D01*
X0216924Y0110246D01*
X0217091Y0110373D01*
X0217209Y0110520D01*
X0217277Y0110686D01*
X0217296Y0110872D01*
X0217413Y0106948D01*
D02*
G37*
G36*
X0543222Y0107760D02*
X0543147Y0107600D01*
X0543122Y0107417D01*
X0543145Y0107214D01*
X0543219Y0106988D01*
X0543341Y0106741D01*
X0543512Y0106473D01*
X0543733Y0106183D01*
X0544002Y0105872D01*
X0544321Y0105539D01*
X0542841Y0104235D01*
X0542505Y0104558D01*
X0541893Y0105060D01*
X0541616Y0105240D01*
X0541359Y0105372D01*
X0541122Y0105458D01*
X0540905Y0105495D01*
X0540707Y0105486D01*
X0540530Y0105429D01*
X0540372Y0105324D01*
X0543345Y0107900D01*
X0543222Y0107760D01*
D02*
G37*
G36*
X0421174Y0107761D02*
X0421100Y0107600D01*
X0421075Y0107418D01*
X0421098Y0107214D01*
X0421172Y0106989D01*
X0421294Y0106742D01*
X0421465Y0106473D01*
X0421686Y0106184D01*
X0421956Y0105872D01*
X0422274Y0105539D01*
X0420795Y0104235D01*
X0420459Y0104558D01*
X0419846Y0105060D01*
X0419569Y0105240D01*
X0419312Y0105372D01*
X0419075Y0105457D01*
X0418858Y0105495D01*
X0418661Y0105485D01*
X0418483Y0105428D01*
X0418325Y0105324D01*
X0421298Y0107900D01*
X0421174Y0107761D01*
D02*
G37*
G36*
X0224324Y0107760D02*
X0224249Y0107599D01*
X0224224Y0107417D01*
X0224248Y0107213D01*
X0224321Y0106988D01*
X0224443Y0106741D01*
X0224614Y0106473D01*
X0224835Y0106183D01*
X0225105Y0105872D01*
X0225424Y0105539D01*
X0223944Y0104235D01*
X0223608Y0104557D01*
X0222995Y0105060D01*
X0222718Y0105239D01*
X0222462Y0105372D01*
X0222224Y0105457D01*
X0222007Y0105495D01*
X0221810Y0105485D01*
X0221632Y0105428D01*
X0221474Y0105324D01*
X0224448Y0107899D01*
X0224324Y0107760D01*
D02*
G37*
G36*
X0102277D02*
X0102202Y0107599D01*
X0102177Y0107417D01*
X0102200Y0107213D01*
X0102274Y0106988D01*
X0102396Y0106741D01*
X0102567Y0106473D01*
X0102788Y0106183D01*
X0103058Y0105872D01*
X0103377Y0105539D01*
X0101897Y0104235D01*
X0101560Y0104557D01*
X0100948Y0105060D01*
X0100671Y0105239D01*
X0100414Y0105372D01*
X0100177Y0105457D01*
X0099960Y0105495D01*
X0099762Y0105485D01*
X0099585Y0105428D01*
X0099427Y0105324D01*
X0102400Y0107899D01*
X0102277Y0107760D01*
D02*
G37*
G36*
X0168342Y0099264D02*
X0168021Y0098929D01*
X0167525Y0098322D01*
X0167349Y0098050D01*
X0167222Y0097799D01*
X0167144Y0097569D01*
X0167115Y0097360D01*
X0167134Y0097171D01*
X0167201Y0097004D01*
X0167317Y0096857D01*
X0164501Y0099590D01*
X0164652Y0099478D01*
X0164823Y0099414D01*
X0165015Y0099399D01*
X0165227Y0099432D01*
X0165461Y0099513D01*
X0165715Y0099642D01*
X0165989Y0099820D01*
X0166284Y0100046D01*
X0166600Y0100320D01*
X0166936Y0100642D01*
X0168342Y0099264D01*
D02*
G37*
G36*
X0046294D02*
X0045973Y0098929D01*
X0045477Y0098322D01*
X0045302Y0098050D01*
X0045175Y0097799D01*
X0045097Y0097569D01*
X0045068Y0097360D01*
X0045086Y0097171D01*
X0045154Y0097004D01*
X0045270Y0096857D01*
X0042454Y0099590D01*
X0042605Y0099478D01*
X0042776Y0099414D01*
X0042968Y0099399D01*
X0043180Y0099432D01*
X0043413Y0099513D01*
X0043667Y0099642D01*
X0043942Y0099820D01*
X0044237Y0100046D01*
X0044553Y0100320D01*
X0044889Y0100642D01*
X0046294Y0099264D01*
D02*
G37*
G36*
X0365192Y0099264D02*
X0364871Y0098929D01*
X0364375Y0098322D01*
X0364200Y0098050D01*
X0364073Y0097799D01*
X0363995Y0097569D01*
X0363965Y0097360D01*
X0363984Y0097171D01*
X0364052Y0097004D01*
X0364168Y0096857D01*
X0361352Y0099590D01*
X0361502Y0099478D01*
X0361673Y0099414D01*
X0361865Y0099399D01*
X0362078Y0099431D01*
X0362311Y0099512D01*
X0362565Y0099642D01*
X0362840Y0099820D01*
X0363135Y0100046D01*
X0363450Y0100320D01*
X0363787Y0100642D01*
X0365192Y0099264D01*
D02*
G37*
G36*
X0479074Y0093918D02*
X0479066Y0094104D01*
X0479007Y0094270D01*
X0478898Y0094417D01*
X0478739Y0094544D01*
X0478530Y0094652D01*
X0478270Y0094739D01*
X0477961Y0094808D01*
X0477602Y0094857D01*
X0477192Y0094886D01*
X0476732Y0094896D01*
X0476872Y0096864D01*
X0477338Y0096874D01*
X0478128Y0096952D01*
X0478452Y0097021D01*
X0478729Y0097109D01*
X0478958Y0097216D01*
X0479140Y0097343D01*
X0479275Y0097490D01*
X0479362Y0097656D01*
X0479402Y0097842D01*
X0479074Y0093918D01*
D02*
G37*
G36*
X0160177Y0093918D02*
X0160168Y0094104D01*
X0160109Y0094270D01*
X0160000Y0094416D01*
X0159841Y0094544D01*
X0159632Y0094651D01*
X0159373Y0094739D01*
X0159063Y0094808D01*
X0158704Y0094857D01*
X0158294Y0094886D01*
X0157835Y0094896D01*
X0157974Y0096864D01*
X0158440Y0096874D01*
X0159230Y0096952D01*
X0159554Y0097021D01*
X0159831Y0097109D01*
X0160061Y0097216D01*
X0160243Y0097343D01*
X0160377Y0097490D01*
X0160465Y0097656D01*
X0160505Y0097842D01*
X0160177Y0093918D01*
D02*
G37*
G36*
X0530222Y0093917D02*
X0530182Y0094102D01*
X0530095Y0094269D01*
X0529960Y0094415D01*
X0529778Y0094542D01*
X0529549Y0094650D01*
X0529272Y0094738D01*
X0528948Y0094806D01*
X0528577Y0094855D01*
X0528158Y0094884D01*
X0527692Y0094894D01*
X0527552Y0096863D01*
X0528012Y0096872D01*
X0528781Y0096951D01*
X0529090Y0097019D01*
X0529350Y0097107D01*
X0529559Y0097215D01*
X0529718Y0097342D01*
X0529827Y0097488D01*
X0529885Y0097655D01*
X0529894Y0097840D01*
X0530222Y0093917D01*
D02*
G37*
G36*
X0408175Y0093916D02*
X0408135Y0094102D01*
X0408048Y0094268D01*
X0407913Y0094415D01*
X0407731Y0094542D01*
X0407502Y0094649D01*
X0407225Y0094737D01*
X0406901Y0094806D01*
X0406529Y0094855D01*
X0406111Y0094884D01*
X0405645Y0094894D01*
X0405505Y0096862D01*
X0405965Y0096872D01*
X0406734Y0096950D01*
X0407043Y0097019D01*
X0407302Y0097107D01*
X0407512Y0097214D01*
X0407671Y0097341D01*
X0407780Y0097488D01*
X0407838Y0097654D01*
X0407847Y0097840D01*
X0408175Y0093916D01*
D02*
G37*
G36*
X0211325D02*
X0211285Y0094102D01*
X0211197Y0094268D01*
X0211063Y0094415D01*
X0210881Y0094542D01*
X0210651Y0094649D01*
X0210374Y0094737D01*
X0210050Y0094806D01*
X0209679Y0094855D01*
X0209260Y0094884D01*
X0208794Y0094894D01*
X0208655Y0096862D01*
X0209114Y0096872D01*
X0209883Y0096950D01*
X0210193Y0097019D01*
X0210452Y0097107D01*
X0210661Y0097214D01*
X0210820Y0097341D01*
X0210929Y0097488D01*
X0210988Y0097654D01*
X0210997Y0097840D01*
X0211325Y0093916D01*
D02*
G37*
G36*
X0358838Y0092349D02*
X0358772Y0092390D01*
X0358688Y0092401D01*
X0358586Y0092383D01*
X0358465Y0092335D01*
X0358326Y0092258D01*
X0358169Y0092151D01*
X0357994Y0092015D01*
X0357588Y0091654D01*
X0357358Y0091430D01*
X0355966Y0092822D01*
X0356187Y0093049D01*
X0356675Y0093620D01*
X0356779Y0093775D01*
X0356854Y0093911D01*
X0356899Y0094030D01*
X0356916Y0094130D01*
X0356903Y0094213D01*
X0356861Y0094277D01*
X0358838Y0092349D01*
D02*
G37*
G36*
X0536919Y0094754D02*
X0536851Y0094587D01*
X0536832Y0094399D01*
X0536862Y0094189D01*
X0536940Y0093959D01*
X0537067Y0093708D01*
X0537242Y0093436D01*
X0537466Y0093143D01*
X0537738Y0092829D01*
X0538059Y0092494D01*
X0536654Y0091116D01*
X0536318Y0091438D01*
X0535707Y0091939D01*
X0535432Y0092116D01*
X0535179Y0092246D01*
X0534945Y0092327D01*
X0534733Y0092360D01*
X0534541Y0092344D01*
X0534369Y0092280D01*
X0534219Y0092168D01*
X0537035Y0094901D01*
X0536919Y0094754D01*
D02*
G37*
G36*
X0414872Y0094755D02*
X0414804Y0094587D01*
X0414785Y0094399D01*
X0414815Y0094190D01*
X0414893Y0093959D01*
X0415020Y0093708D01*
X0415195Y0093436D01*
X0415419Y0093143D01*
X0415691Y0092829D01*
X0416012Y0092495D01*
X0414607Y0091116D01*
X0414271Y0091438D01*
X0413660Y0091939D01*
X0413386Y0092116D01*
X0413132Y0092246D01*
X0412898Y0092327D01*
X0412686Y0092360D01*
X0412494Y0092344D01*
X0412323Y0092280D01*
X0412172Y0092168D01*
X0414988Y0094901D01*
X0414872Y0094755D01*
D02*
G37*
G36*
X0218021Y0094754D02*
X0217954Y0094587D01*
X0217935Y0094398D01*
X0217964Y0094189D01*
X0218042Y0093959D01*
X0218169Y0093708D01*
X0218344Y0093436D01*
X0218568Y0093143D01*
X0218841Y0092829D01*
X0219162Y0092494D01*
X0217756Y0091115D01*
X0217420Y0091438D01*
X0216809Y0091938D01*
X0216535Y0092116D01*
X0216281Y0092245D01*
X0216048Y0092326D01*
X0215835Y0092359D01*
X0215643Y0092344D01*
X0215472Y0092280D01*
X0215321Y0092168D01*
X0218137Y0094901D01*
X0218021Y0094754D01*
D02*
G37*
G36*
X0095974D02*
X0095906Y0094587D01*
X0095888Y0094398D01*
X0095917Y0094189D01*
X0095995Y0093959D01*
X0096122Y0093708D01*
X0096297Y0093436D01*
X0096521Y0093143D01*
X0096793Y0092829D01*
X0097114Y0092494D01*
X0095709Y0091115D01*
X0095373Y0091438D01*
X0094762Y0091938D01*
X0094487Y0092116D01*
X0094234Y0092245D01*
X0094000Y0092326D01*
X0093788Y0092359D01*
X0093596Y0092344D01*
X0093425Y0092280D01*
X0093274Y0092168D01*
X0096090Y0094901D01*
X0095974Y0094754D01*
D02*
G37*
G36*
X0267300Y0080907D02*
X0267212Y0080809D01*
X0267133Y0080701D01*
X0267064Y0080582D01*
X0267005Y0080453D01*
X0266955Y0080314D01*
X0266914Y0080164D01*
X0266883Y0080004D01*
X0266861Y0079833D01*
X0266849Y0079652D01*
X0266846Y0079461D01*
X0265287Y0081020D01*
X0265479Y0081022D01*
X0265660Y0081035D01*
X0265831Y0081056D01*
X0265991Y0081087D01*
X0266141Y0081128D01*
X0266280Y0081178D01*
X0266409Y0081238D01*
X0266528Y0081307D01*
X0266636Y0081385D01*
X0266734Y0081473D01*
X0267300Y0080907D01*
D02*
G37*
G36*
X0303132Y0080611D02*
X0303269Y0080491D01*
X0303405Y0080386D01*
X0303540Y0080295D01*
X0303675Y0080217D01*
X0303809Y0080154D01*
X0303942Y0080105D01*
X0304075Y0080070D01*
X0304207Y0080049D01*
X0304338Y0080042D01*
Y0079242D01*
X0304207Y0079235D01*
X0304075Y0079214D01*
X0303942Y0079179D01*
X0303809Y0079129D01*
X0303675Y0079066D01*
X0303540Y0078989D01*
X0303405Y0078898D01*
X0303269Y0078792D01*
X0303132Y0078673D01*
X0302995Y0078539D01*
Y0080744D01*
X0303132Y0080611D01*
D02*
G37*
G36*
X0325830Y0054440D02*
X0325882Y0053679D01*
X0325930Y0053343D01*
X0325994Y0053035D01*
X0326073Y0052757D01*
X0326166Y0052508D01*
X0326275Y0052289D01*
X0326399Y0052098D01*
X0326538Y0051937D01*
X0325831Y0051230D01*
X0325670Y0051369D01*
X0325480Y0051493D01*
X0325260Y0051602D01*
X0325011Y0051696D01*
X0324733Y0051774D01*
X0324426Y0051838D01*
X0324089Y0051886D01*
X0323328Y0051938D01*
X0322904Y0051941D01*
X0325827Y0054864D01*
X0325830Y0054440D01*
D02*
G37*
G36*
X0374070Y0046876D02*
X0374082Y0046695D01*
X0374103Y0046524D01*
X0374135Y0046364D01*
X0374175Y0046214D01*
X0374225Y0046074D01*
X0374285Y0045945D01*
X0374354Y0045827D01*
X0374432Y0045719D01*
X0374520Y0045621D01*
X0373954Y0045055D01*
X0373857Y0045143D01*
X0373748Y0045221D01*
X0373630Y0045290D01*
X0373501Y0045350D01*
X0373361Y0045400D01*
X0373211Y0045441D01*
X0373051Y0045472D01*
X0372880Y0045493D01*
X0372699Y0045505D01*
X0372508Y0045508D01*
X0374067Y0047067D01*
X0374070Y0046876D01*
D02*
G37*
G36*
X0416608Y0046695D02*
X0414246Y0041481D01*
X0414229Y0041913D01*
X0414179Y0042265D01*
X0414095Y0042535D01*
X0413978Y0042726D01*
X0413828Y0042835D01*
X0413644Y0042864D01*
X0413427Y0042812D01*
X0413177Y0042680D01*
X0412893Y0042467D01*
X0412575Y0042173D01*
Y0045513D01*
X0412893Y0045854D01*
X0413177Y0046209D01*
X0413427Y0046578D01*
X0413644Y0046960D01*
X0413828Y0047357D01*
X0413978Y0047767D01*
X0414095Y0048191D01*
X0414179Y0048629D01*
X0414229Y0049081D01*
X0414246Y0049546D01*
X0416608Y0046695D01*
D02*
G37*
G36*
X0412618Y0036882D02*
X0412427Y0036880D01*
X0412246Y0036867D01*
X0412075Y0036846D01*
X0411915Y0036815D01*
X0411765Y0036774D01*
X0411625Y0036724D01*
X0411496Y0036664D01*
X0411378Y0036595D01*
X0411269Y0036517D01*
X0411171Y0036429D01*
X0410606Y0036995D01*
X0410694Y0037093D01*
X0410772Y0037201D01*
X0410841Y0037319D01*
X0410901Y0037448D01*
X0410951Y0037588D01*
X0410991Y0037738D01*
X0411023Y0037898D01*
X0411044Y0038069D01*
X0411056Y0038250D01*
X0411059Y0038441D01*
X0412618Y0036882D01*
D02*
G37*
G36*
Y0032362D02*
X0412427Y0032359D01*
X0412246Y0032347D01*
X0412075Y0032325D01*
X0411915Y0032294D01*
X0411765Y0032254D01*
X0411625Y0032203D01*
X0411496Y0032144D01*
X0411378Y0032075D01*
X0411269Y0031997D01*
X0411171Y0031909D01*
X0410606Y0032474D01*
X0410694Y0032572D01*
X0410772Y0032680D01*
X0410841Y0032799D01*
X0410901Y0032928D01*
X0410951Y0033068D01*
X0410991Y0033217D01*
X0411023Y0033378D01*
X0411044Y0033548D01*
X0411056Y0033729D01*
X0411059Y0033921D01*
X0412618Y0032362D01*
D02*
G37*
G36*
X0375041Y0033049D02*
X0375062Y0032917D01*
X0375097Y0032785D01*
X0375146Y0032651D01*
X0375209Y0032517D01*
X0375287Y0032383D01*
X0375378Y0032247D01*
X0375483Y0032111D01*
X0375603Y0031975D01*
X0375736Y0031837D01*
X0373532D01*
X0373665Y0031975D01*
X0373784Y0032111D01*
X0373890Y0032247D01*
X0373981Y0032383D01*
X0374058Y0032517D01*
X0374121Y0032651D01*
X0374171Y0032785D01*
X0374206Y0032917D01*
X0374227Y0033049D01*
X0374234Y0033181D01*
X0375034D01*
X0375041Y0033049D01*
D02*
G37*
G36*
X0262211Y0033072D02*
X0262223Y0032891D01*
X0262245Y0032720D01*
X0262276Y0032560D01*
X0262317Y0032410D01*
X0262367Y0032271D01*
X0262426Y0032142D01*
X0262495Y0032023D01*
X0262574Y0031915D01*
X0262662Y0031817D01*
X0262096Y0031251D01*
X0261998Y0031339D01*
X0261890Y0031418D01*
X0261771Y0031486D01*
X0261642Y0031546D01*
X0261503Y0031596D01*
X0261353Y0031637D01*
X0261192Y0031668D01*
X0261022Y0031690D01*
X0260841Y0031702D01*
X0260649Y0031705D01*
X0262208Y0033263D01*
X0262211Y0033072D01*
D02*
G37*
G36*
X0508852Y0027000D02*
X0508726Y0026873D01*
X0508298Y0026386D01*
X0508252Y0026319D01*
X0508219Y0026261D01*
X0508200Y0026213D01*
X0508193Y0026175D01*
X0506634Y0027734D01*
X0506672Y0027740D01*
X0506720Y0027760D01*
X0506778Y0027792D01*
X0506846Y0027838D01*
X0506923Y0027898D01*
X0507108Y0028056D01*
X0507460Y0028392D01*
X0508852Y0027000D01*
D02*
G37*
G36*
X0495072Y0027000D02*
X0494946Y0026873D01*
X0494518Y0026386D01*
X0494472Y0026319D01*
X0494439Y0026261D01*
X0494419Y0026213D01*
X0494413Y0026175D01*
X0492854Y0027734D01*
X0492892Y0027740D01*
X0492940Y0027760D01*
X0492998Y0027792D01*
X0493066Y0027838D01*
X0493143Y0027898D01*
X0493328Y0028056D01*
X0493680Y0028392D01*
X0495072Y0027000D01*
D02*
G37*
G36*
X0481293Y0027000D02*
X0481167Y0026873D01*
X0480739Y0026386D01*
X0480693Y0026319D01*
X0480660Y0026261D01*
X0480641Y0026213D01*
X0480634Y0026175D01*
X0479075Y0027734D01*
X0479113Y0027740D01*
X0479161Y0027760D01*
X0479219Y0027792D01*
X0479287Y0027838D01*
X0479364Y0027898D01*
X0479549Y0028056D01*
X0479901Y0028392D01*
X0481293Y0027000D01*
D02*
G37*
G36*
X0522631Y0027000D02*
X0522506Y0026873D01*
X0522077Y0026386D01*
X0522031Y0026318D01*
X0521999Y0026260D01*
X0521979Y0026212D01*
X0521973Y0026174D01*
X0520414Y0027733D01*
X0520452Y0027739D01*
X0520500Y0027759D01*
X0520557Y0027792D01*
X0520625Y0027838D01*
X0520703Y0027897D01*
X0520888Y0028055D01*
X0521240Y0028392D01*
X0522631Y0027000D01*
D02*
G37*
G36*
X0534744Y0024784D02*
X0534791Y0024764D01*
X0534856Y0024747D01*
X0534936Y0024731D01*
X0535033Y0024718D01*
X0535275Y0024699D01*
X0535762Y0024689D01*
Y0022720D01*
X0535583Y0022719D01*
X0534936Y0022678D01*
X0534856Y0022662D01*
X0534791Y0022645D01*
X0534744Y0022625D01*
X0534712Y0022602D01*
Y0024807D01*
X0534744Y0024784D01*
D02*
G37*
G36*
X0553974Y0170521D02*
X0552683Y0169986D01*
X0550805Y0168835D01*
X0549131Y0167405D01*
X0547700Y0165730D01*
X0546550Y0163852D01*
X0545707Y0161818D01*
X0545192Y0159676D01*
X0545059Y0157980D01*
X0559055D01*
Y0157480D01*
X0559555D01*
Y0143484D01*
X0561251Y0143618D01*
X0563392Y0144132D01*
X0565427Y0144975D01*
X0567305Y0146125D01*
X0568980Y0147556D01*
X0570410Y0149231D01*
X0571561Y0151108D01*
X0572095Y0152399D01*
X0572595Y0152300D01*
Y0020929D01*
X0572095Y0020829D01*
X0571561Y0022120D01*
X0570410Y0023998D01*
X0568980Y0025673D01*
X0567305Y0027103D01*
X0565427Y0028254D01*
X0563392Y0029096D01*
X0561251Y0029611D01*
X0559555Y0029744D01*
Y0015748D01*
X0559055D01*
Y0015248D01*
X0545059D01*
X0545192Y0013552D01*
X0545707Y0011411D01*
X0546550Y0009376D01*
X0547700Y0007498D01*
X0549131Y0005824D01*
X0550805Y0004393D01*
X0552683Y0003242D01*
X0553974Y0002708D01*
X0553874Y0002208D01*
X0400758D01*
X0400491Y0002708D01*
X0400787Y0003151D01*
X0400956Y0004000D01*
X0400787Y0004849D01*
X0400640Y0005068D01*
X0400832Y0005530D01*
X0400890Y0005542D01*
X0401595Y0006013D01*
X0401619Y0006022D01*
X0401744Y0006144D01*
X0401853Y0006239D01*
X0401957Y0006320D01*
X0402055Y0006386D01*
X0402147Y0006439D01*
X0402232Y0006479D01*
X0402309Y0006507D01*
X0402381Y0006526D01*
X0402447Y0006537D01*
X0402544Y0006542D01*
X0402604Y0006571D01*
X0409232D01*
X0409622Y0006649D01*
X0409953Y0006870D01*
X0425129Y0022045D01*
X0425350Y0022376D01*
X0425427Y0022766D01*
Y0049001D01*
X0425350Y0049391D01*
X0425129Y0049722D01*
X0404225Y0070625D01*
X0403895Y0070846D01*
X0403504Y0070924D01*
X0317908D01*
X0305364Y0083468D01*
X0305571Y0083968D01*
X0361659Y0083968D01*
X0361849Y0083812D01*
X0364671Y0081927D01*
X0364751Y0081537D01*
X0364676Y0081322D01*
X0364560Y0081291D01*
X0364557Y0081292D01*
X0363324Y0081454D01*
X0362091Y0081292D01*
X0360941Y0080816D01*
X0359954Y0080058D01*
X0359197Y0079072D01*
X0358721Y0077922D01*
X0358559Y0076689D01*
X0358721Y0075456D01*
X0359197Y0074306D01*
X0359954Y0073320D01*
X0360941Y0072562D01*
X0362091Y0072086D01*
X0363324Y0071924D01*
X0364557Y0072086D01*
X0364801Y0072187D01*
X0365351D01*
X0365539Y0072109D01*
X0366773Y0071947D01*
X0368006Y0072109D01*
X0368195Y0072187D01*
X0380709D01*
X0495239Y0072187D01*
X0495241Y0072187D01*
X0511201D01*
X0512332Y0072336D01*
X0513385Y0072773D01*
X0514290Y0073467D01*
X0516777Y0075954D01*
X0517343Y0076188D01*
X0518330Y0076946D01*
X0518687Y0077411D01*
X0521434Y0078244D01*
X0525083Y0079756D01*
X0528567Y0081618D01*
X0531851Y0083812D01*
X0534905Y0086318D01*
X0535231Y0086644D01*
X0535693Y0086453D01*
Y0044892D01*
X0535483Y0044682D01*
X0533460D01*
X0533460Y0044682D01*
X0493413D01*
X0492334Y0044540D01*
X0491328Y0044123D01*
X0490465Y0043461D01*
X0477723Y0030719D01*
X0476677Y0030286D01*
X0475690Y0029529D01*
X0474933Y0028542D01*
X0474457Y0027392D01*
X0474294Y0026159D01*
X0474457Y0024926D01*
X0474933Y0023776D01*
X0475690Y0022790D01*
X0476677Y0022032D01*
X0477826Y0021556D01*
X0479060Y0021394D01*
X0480293Y0021556D01*
X0481442Y0022032D01*
X0482429Y0022790D01*
X0483186Y0023776D01*
X0483619Y0024823D01*
X0495140Y0036343D01*
X0496473D01*
X0496664Y0035881D01*
X0491502Y0030719D01*
X0490456Y0030286D01*
X0489469Y0029529D01*
X0488712Y0028542D01*
X0488236Y0027392D01*
X0488073Y0026159D01*
X0488236Y0024926D01*
X0488712Y0023776D01*
X0489469Y0022790D01*
X0490456Y0022032D01*
X0491605Y0021556D01*
X0492838Y0021394D01*
X0494072Y0021556D01*
X0495221Y0022032D01*
X0496208Y0022790D01*
X0496965Y0023776D01*
X0497399Y0024823D01*
X0504982Y0032406D01*
X0506316D01*
X0506507Y0031944D01*
X0505282Y0030719D01*
X0504236Y0030286D01*
X0503249Y0029529D01*
X0502492Y0028542D01*
X0502016Y0027392D01*
X0501853Y0026159D01*
X0502016Y0024926D01*
X0502492Y0023776D01*
X0503249Y0022790D01*
X0504236Y0022032D01*
X0505385Y0021556D01*
X0506618Y0021394D01*
X0507852Y0021556D01*
X0509001Y0022032D01*
X0509988Y0022790D01*
X0510745Y0023776D01*
X0511178Y0024823D01*
X0514825Y0028469D01*
X0515792D01*
X0516069Y0028053D01*
X0515795Y0027392D01*
X0515633Y0026158D01*
X0515795Y0024925D01*
X0516271Y0023776D01*
X0517029Y0022789D01*
X0518015Y0022031D01*
X0519165Y0021555D01*
X0520398Y0021393D01*
X0521631Y0021555D01*
X0522781Y0022031D01*
X0523768Y0022789D01*
X0524525Y0023776D01*
X0524838Y0024532D01*
X0528552D01*
X0528882Y0024156D01*
X0528823Y0023704D01*
X0528985Y0022471D01*
X0529461Y0021322D01*
X0530218Y0020335D01*
X0531205Y0019578D01*
X0532354Y0019102D01*
X0533588Y0018939D01*
X0534821Y0019102D01*
X0535867Y0019535D01*
X0542673D01*
X0543752Y0019677D01*
X0544758Y0020094D01*
X0545360Y0020556D01*
X0545771Y0020241D01*
X0545707Y0020085D01*
X0545192Y0017944D01*
X0545059Y0016248D01*
X0558555D01*
Y0029744D01*
X0556859Y0029611D01*
X0554718Y0029096D01*
X0554611Y0029052D01*
X0554334Y0029468D01*
X0558559Y0033693D01*
X0559222Y0034557D01*
X0559638Y0035563D01*
X0559780Y0036642D01*
Y0127854D01*
X0559638Y0128933D01*
X0559222Y0129939D01*
X0558559Y0130802D01*
X0540990Y0148371D01*
X0540126Y0149034D01*
X0539121Y0149451D01*
X0538041Y0149593D01*
X0530174D01*
X0528567Y0150666D01*
X0525083Y0152529D01*
X0521434Y0154040D01*
X0517654Y0155187D01*
X0513780Y0155957D01*
X0509849Y0156345D01*
X0505899D01*
X0501968Y0155957D01*
X0498094Y0155187D01*
X0494314Y0154040D01*
X0492009Y0153085D01*
X0485008Y0160086D01*
X0484145Y0160749D01*
X0483139Y0161165D01*
X0482060Y0161307D01*
X0383441D01*
X0382362Y0161165D01*
X0381356Y0160749D01*
X0380492Y0160086D01*
X0375395Y0154989D01*
X0372267Y0154040D01*
X0369962Y0153085D01*
X0362961Y0160086D01*
X0362098Y0160749D01*
X0361092Y0161165D01*
X0360013Y0161307D01*
X0186590D01*
X0185511Y0161165D01*
X0184506Y0160749D01*
X0183642Y0160086D01*
X0178545Y0154989D01*
X0175416Y0154040D01*
X0173111Y0153085D01*
X0167111Y0159086D01*
X0166247Y0159749D01*
X0165242Y0160165D01*
X0164162Y0160307D01*
X0063543D01*
X0062464Y0160165D01*
X0061458Y0159749D01*
X0060595Y0159086D01*
X0056498Y0154989D01*
X0053369Y0154040D01*
X0049720Y0152528D01*
X0046236Y0150666D01*
X0042952Y0148472D01*
X0039898Y0145966D01*
X0037105Y0143173D01*
X0034599Y0140119D01*
X0032405Y0136835D01*
X0030543Y0133351D01*
X0029031Y0129702D01*
X0027884Y0125922D01*
X0027114Y0122048D01*
X0026727Y0118117D01*
Y0114167D01*
X0027114Y0110236D01*
X0027884Y0106361D01*
X0029031Y0102582D01*
X0030543Y0098932D01*
X0032405Y0095449D01*
X0034599Y0092164D01*
X0037105Y0089111D01*
X0039898Y0086318D01*
X0042952Y0083812D01*
X0046236Y0081617D01*
X0049720Y0079755D01*
X0053369Y0078244D01*
X0057149Y0077097D01*
X0061023Y0076326D01*
X0064954Y0075939D01*
X0068904D01*
X0072835Y0076326D01*
X0076709Y0077097D01*
X0080489Y0078244D01*
X0084139Y0079755D01*
X0087622Y0081617D01*
X0090907Y0083812D01*
X0093960Y0086318D01*
X0094981Y0087339D01*
X0097130Y0085189D01*
X0097994Y0084527D01*
X0099000Y0084110D01*
X0100079Y0083968D01*
X0164808D01*
X0164999Y0083812D01*
X0168283Y0081617D01*
X0171767Y0079755D01*
X0175416Y0078244D01*
X0179196Y0077097D01*
X0183070Y0076326D01*
X0187001Y0075939D01*
X0190951D01*
X0194882Y0076326D01*
X0198757Y0077097D01*
X0202537Y0078244D01*
X0206186Y0079755D01*
X0209669Y0081617D01*
X0212954Y0083812D01*
X0216007Y0086318D01*
X0217028Y0087339D01*
X0219178Y0085189D01*
X0220041Y0084527D01*
X0221047Y0084110D01*
X0222126Y0083968D01*
X0267646D01*
X0267853Y0083468D01*
X0266363Y0081978D01*
X0266300Y0081956D01*
X0266228Y0081891D01*
X0266173Y0081852D01*
X0266109Y0081814D01*
X0266034Y0081780D01*
X0265946Y0081748D01*
X0265844Y0081721D01*
X0265728Y0081698D01*
X0265597Y0081681D01*
X0265452Y0081672D01*
X0265278Y0081669D01*
X0265255Y0081659D01*
X0264423Y0081494D01*
X0263704Y0081013D01*
X0263223Y0080294D01*
X0263054Y0079445D01*
X0263223Y0078596D01*
X0263704Y0077877D01*
X0264423Y0077396D01*
X0265272Y0077227D01*
X0266120Y0077396D01*
X0266840Y0077877D01*
X0267320Y0078596D01*
X0267486Y0079428D01*
X0267496Y0079451D01*
X0267498Y0079625D01*
X0267508Y0079770D01*
X0267525Y0079901D01*
X0267547Y0080017D01*
X0267575Y0080119D01*
X0267606Y0080207D01*
X0267641Y0080283D01*
X0267678Y0080347D01*
X0267718Y0080401D01*
X0267783Y0080473D01*
X0267805Y0080536D01*
X0269320Y0082051D01*
X0300662D01*
X0300813Y0081551D01*
X0300302Y0081210D01*
X0299821Y0080490D01*
X0299653Y0079642D01*
X0299821Y0078793D01*
X0300302Y0078074D01*
X0301022Y0077593D01*
X0301870Y0077424D01*
X0302719Y0077593D01*
X0303424Y0078064D01*
X0303447Y0078074D01*
X0303572Y0078195D01*
X0303682Y0078291D01*
X0303786Y0078371D01*
X0303884Y0078437D01*
X0303975Y0078490D01*
X0304060Y0078530D01*
X0304138Y0078559D01*
X0304209Y0078578D01*
X0304275Y0078588D01*
X0304373Y0078593D01*
X0304433Y0078622D01*
X0305346D01*
X0316185Y0067783D01*
X0316516Y0067562D01*
X0316906Y0067484D01*
X0342377D01*
X0342529Y0066984D01*
X0342134Y0066720D01*
X0333771Y0058358D01*
X0332874Y0058476D01*
X0331947Y0058354D01*
X0331083Y0057996D01*
X0330341Y0057427D01*
X0329771Y0056684D01*
X0329413Y0055820D01*
X0329291Y0054893D01*
X0329413Y0053965D01*
X0329771Y0053101D01*
X0330262Y0052461D01*
X0330105Y0051961D01*
X0327393D01*
X0327048Y0052306D01*
X0327030Y0052361D01*
X0326920Y0052489D01*
X0326840Y0052611D01*
X0326763Y0052768D01*
X0326690Y0052960D01*
X0326625Y0053190D01*
X0326570Y0053455D01*
X0326528Y0053748D01*
X0326480Y0054465D01*
X0326477Y0054869D01*
X0326454Y0054922D01*
X0326336Y0055821D01*
X0325978Y0056685D01*
X0325408Y0057428D01*
X0324666Y0057997D01*
X0323802Y0058355D01*
X0322874Y0058477D01*
X0321947Y0058355D01*
X0321083Y0057997D01*
X0320341Y0057428D01*
X0319771Y0056685D01*
X0319413Y0055821D01*
X0319291Y0054894D01*
X0319413Y0053966D01*
X0319771Y0053102D01*
X0320341Y0052360D01*
X0321083Y0051790D01*
X0321947Y0051432D01*
X0322846Y0051314D01*
X0322899Y0051292D01*
X0323304Y0051289D01*
X0324021Y0051240D01*
X0324313Y0051198D01*
X0324578Y0051143D01*
X0324808Y0051078D01*
X0324854Y0051061D01*
X0324971Y0050862D01*
X0324685Y0050362D01*
X0315835D01*
X0315317Y0050880D01*
X0315508Y0051342D01*
X0316427D01*
Y0058447D01*
X0309322D01*
Y0051342D01*
X0311831D01*
X0311838Y0051307D01*
X0312081Y0050943D01*
X0314359Y0048666D01*
X0314075Y0048242D01*
X0313801Y0048356D01*
X0312874Y0048478D01*
X0311946Y0048356D01*
X0311082Y0047998D01*
X0310340Y0047429D01*
X0309770Y0046686D01*
X0309412Y0045822D01*
X0309290Y0044895D01*
X0309412Y0043967D01*
X0309770Y0043103D01*
X0310340Y0042361D01*
X0310400Y0042314D01*
X0310239Y0041841D01*
X0305558D01*
X0293425Y0053974D01*
X0293458Y0054473D01*
X0293562Y0054553D01*
X0294131Y0055295D01*
X0294489Y0056159D01*
X0294612Y0057087D01*
Y0061024D01*
X0294489Y0061951D01*
X0294131Y0062815D01*
X0293562Y0063557D01*
X0292820Y0064127D01*
X0291955Y0064485D01*
X0291028Y0064607D01*
X0290101Y0064485D01*
X0289236Y0064127D01*
X0288494Y0063557D01*
X0287925Y0062815D01*
X0287567Y0061951D01*
X0287445Y0061024D01*
Y0057087D01*
X0287567Y0056159D01*
X0287925Y0055295D01*
X0288494Y0054553D01*
X0289212Y0054002D01*
Y0053803D01*
X0289350Y0053108D01*
X0289744Y0052519D01*
X0303522Y0038741D01*
X0304111Y0038347D01*
X0304806Y0038209D01*
X0335406D01*
X0336101Y0038347D01*
X0336690Y0038741D01*
X0346779Y0048830D01*
X0370442D01*
X0370710Y0048330D01*
X0370444Y0047932D01*
X0370275Y0047083D01*
X0370444Y0046234D01*
X0370924Y0045515D01*
X0371644Y0045034D01*
X0372475Y0044869D01*
X0372498Y0044859D01*
X0372673Y0044856D01*
X0372818Y0044847D01*
X0372948Y0044830D01*
X0373064Y0044807D01*
X0373166Y0044780D01*
X0373254Y0044748D01*
X0373330Y0044713D01*
X0373394Y0044676D01*
X0373448Y0044637D01*
X0373520Y0044572D01*
X0373584Y0044550D01*
X0373614Y0044519D01*
Y0033276D01*
X0373585Y0033215D01*
X0373580Y0033118D01*
X0373570Y0033052D01*
X0373551Y0032980D01*
X0373522Y0032903D01*
X0373482Y0032818D01*
X0373429Y0032726D01*
X0373363Y0032628D01*
X0373283Y0032524D01*
X0373187Y0032415D01*
X0373066Y0032290D01*
X0373056Y0032266D01*
X0372585Y0031561D01*
X0372416Y0030713D01*
X0372585Y0029864D01*
X0373066Y0029145D01*
X0373785Y0028664D01*
X0374634Y0028495D01*
X0375482Y0028664D01*
X0376202Y0029145D01*
X0376682Y0029864D01*
X0376851Y0030713D01*
X0376682Y0031561D01*
X0376211Y0032266D01*
X0376202Y0032290D01*
X0376081Y0032415D01*
X0375985Y0032524D01*
X0375904Y0032628D01*
X0375838Y0032726D01*
X0375786Y0032818D01*
X0375746Y0032903D01*
X0375717Y0032980D01*
X0375698Y0033052D01*
X0375688Y0033118D01*
X0375682Y0033215D01*
X0375654Y0033276D01*
Y0044941D01*
X0375576Y0045331D01*
X0375355Y0045662D01*
X0375026Y0045992D01*
X0375003Y0046055D01*
X0374938Y0046127D01*
X0374899Y0046181D01*
X0374862Y0046245D01*
X0374827Y0046321D01*
X0374795Y0046409D01*
X0374768Y0046511D01*
X0374745Y0046627D01*
X0374728Y0046757D01*
X0374720Y0046878D01*
X0374759Y0046918D01*
X0375212Y0047094D01*
X0376507Y0045798D01*
X0376589Y0045388D01*
X0377070Y0044668D01*
X0377789Y0044188D01*
X0378638Y0044019D01*
X0379486Y0044188D01*
X0380206Y0044668D01*
X0380686Y0045388D01*
X0380855Y0046236D01*
X0380686Y0047085D01*
X0380206Y0047804D01*
X0379486Y0048285D01*
X0379076Y0048366D01*
X0376099Y0051344D01*
X0376290Y0051806D01*
X0390860D01*
X0392930Y0049735D01*
X0392930Y0049735D01*
X0393294Y0049492D01*
X0393723Y0049406D01*
X0401504D01*
X0402021Y0048889D01*
X0401916Y0048363D01*
X0402085Y0047514D01*
X0402566Y0046795D01*
X0403285Y0046314D01*
X0404134Y0046145D01*
X0404982Y0046314D01*
X0405702Y0046795D01*
X0406182Y0047514D01*
X0406306Y0048135D01*
X0406351Y0048363D01*
X0406834Y0048501D01*
X0407181Y0048432D01*
X0408030Y0048601D01*
X0408749Y0049082D01*
X0409230Y0049801D01*
X0409399Y0050650D01*
X0409230Y0051498D01*
X0408832Y0052093D01*
X0409018Y0052593D01*
X0410915D01*
X0413297Y0050212D01*
X0413378Y0049801D01*
X0413593Y0049479D01*
X0413581Y0049128D01*
X0413536Y0048726D01*
X0413462Y0048338D01*
X0413359Y0047965D01*
X0413228Y0047605D01*
X0413066Y0047258D01*
X0412875Y0046921D01*
X0412654Y0046595D01*
X0412401Y0046279D01*
X0412100Y0045956D01*
X0412088Y0045924D01*
X0403937Y0037773D01*
X0403543Y0037184D01*
X0403405Y0036489D01*
Y0026432D01*
X0388895Y0011922D01*
X0358836D01*
Y0013194D01*
X0358646Y0013653D01*
X0358187Y0013843D01*
X0343759D01*
X0343300Y0013653D01*
X0343110Y0013194D01*
Y0008444D01*
X0342959Y0008220D01*
X0314764D01*
X0306637Y0016346D01*
X0306307Y0016567D01*
X0305916Y0016645D01*
X0283685D01*
X0269842Y0030488D01*
X0269860Y0030546D01*
X0270044Y0030993D01*
X0270702Y0031432D01*
X0271182Y0032151D01*
X0271351Y0033000D01*
X0271182Y0033849D01*
X0270702Y0034568D01*
X0269982Y0035049D01*
X0269134Y0035217D01*
X0268285Y0035049D01*
X0267566Y0034568D01*
X0267289Y0034153D01*
X0266687D01*
X0266410Y0034568D01*
X0265691Y0035049D01*
X0264843Y0035217D01*
X0263994Y0035049D01*
X0263275Y0034568D01*
X0263113Y0034327D01*
X0262531Y0034354D01*
X0262201Y0034847D01*
X0261482Y0035328D01*
X0260633Y0035497D01*
X0259785Y0035328D01*
X0259066Y0034847D01*
X0258585Y0034128D01*
X0258416Y0033279D01*
X0257952Y0033049D01*
X0245510Y0045491D01*
X0245510Y0045491D01*
X0245509Y0045492D01*
X0245280Y0045586D01*
X0245051Y0045681D01*
X0245050Y0045681D01*
X0245050Y0045681D01*
X0216427Y0045621D01*
X0216197Y0045526D01*
X0215969Y0045431D01*
X0214438Y0043900D01*
X0214248Y0043441D01*
X0214248Y0040039D01*
X0214438Y0039580D01*
X0217076Y0036942D01*
X0217535Y0036752D01*
X0234487D01*
X0268569Y0002670D01*
X0268378Y0002208D01*
X0020929D01*
X0020829Y0002708D01*
X0022120Y0003242D01*
X0023998Y0004393D01*
X0025673Y0005824D01*
X0027103Y0007498D01*
X0028254Y0009376D01*
X0029096Y0011411D01*
X0029611Y0013552D01*
X0029744Y0015248D01*
X0015748D01*
Y0015748D01*
X0015248D01*
Y0029744D01*
X0013552Y0029611D01*
X0011411Y0029096D01*
X0009376Y0028254D01*
X0007498Y0027103D01*
X0005824Y0025673D01*
X0004393Y0023998D01*
X0003242Y0022120D01*
X0002708Y0020829D01*
X0002208Y0020929D01*
Y0152300D01*
X0002708Y0152399D01*
X0003242Y0151108D01*
X0004393Y0149231D01*
X0005824Y0147556D01*
X0007498Y0146125D01*
X0009376Y0144975D01*
X0011411Y0144132D01*
X0013552Y0143618D01*
X0015248Y0143484D01*
Y0157480D01*
X0015748D01*
Y0157980D01*
X0029744D01*
X0029611Y0159676D01*
X0029096Y0161818D01*
X0028254Y0163852D01*
X0027103Y0165730D01*
X0025673Y0167405D01*
X0023998Y0168835D01*
X0022120Y0169986D01*
X0020829Y0170521D01*
X0020929Y0171021D01*
X0553874D01*
X0553974Y0170521D01*
D02*
G37*
G36*
X0402666Y0012199D02*
X0402803Y0012080D01*
X0402939Y0011974D01*
X0403074Y0011883D01*
X0403208Y0011806D01*
X0403342Y0011742D01*
X0403476Y0011693D01*
X0403609Y0011658D01*
X0403741Y0011637D01*
X0403872Y0011630D01*
Y0010830D01*
X0403741Y0010823D01*
X0403609Y0010802D01*
X0403476Y0010767D01*
X0403342Y0010718D01*
X0403208Y0010655D01*
X0403074Y0010577D01*
X0402939Y0010486D01*
X0402803Y0010380D01*
X0402666Y0010261D01*
X0402528Y0010128D01*
Y0012332D01*
X0402666Y0012199D01*
D02*
G37*
G36*
X0358187Y0008514D02*
X0358118Y0008444D01*
X0343759D01*
Y0013194D01*
X0358187D01*
Y0008514D01*
D02*
G37*
G36*
X0401303Y0008559D02*
X0401440Y0008440D01*
X0401576Y0008335D01*
X0401711Y0008243D01*
X0401846Y0008166D01*
X0401980Y0008103D01*
X0402113Y0008054D01*
X0402246Y0008019D01*
X0402378Y0007998D01*
X0402509Y0007991D01*
Y0007191D01*
X0402378Y0007183D01*
X0402246Y0007163D01*
X0402113Y0007127D01*
X0401980Y0007078D01*
X0401846Y0007015D01*
X0401711Y0006938D01*
X0401576Y0006846D01*
X0401440Y0006741D01*
X0401303Y0006622D01*
X0401166Y0006488D01*
Y0008693D01*
X0401303Y0008559D01*
D02*
G37*
G36*
X0397614Y0002898D02*
X0397477Y0003031D01*
X0397340Y0003150D01*
X0397204Y0003256D01*
X0397069Y0003347D01*
X0396934Y0003424D01*
X0396800Y0003488D01*
X0396667Y0003537D01*
X0396534Y0003572D01*
X0396402Y0003593D01*
X0396271Y0003600D01*
Y0004400D01*
X0396402Y0004407D01*
X0396534Y0004428D01*
X0396667Y0004463D01*
X0396800Y0004512D01*
X0396934Y0004576D01*
X0397069Y0004653D01*
X0397204Y0004744D01*
X0397340Y0004849D01*
X0397477Y0004969D01*
X0397614Y0005102D01*
Y0002898D01*
D02*
G37*
G36*
X0280083Y0010000D02*
X0303332Y0010000D01*
X0306134Y0007013D01*
X0306134Y0004543D01*
X0303798Y0002208D01*
X0269950D01*
X0234756Y0037402D01*
X0217535D01*
X0214898Y0040039D01*
X0214898Y0043441D01*
X0216429Y0044972D01*
X0245051Y0045032D01*
X0280083Y0010000D01*
D02*
G37*
%LPC*%
G36*
X0558555Y0156980D02*
X0545059D01*
X0545192Y0155285D01*
X0545707Y0153143D01*
X0546550Y0151108D01*
X0547700Y0149231D01*
X0549131Y0147556D01*
X0550805Y0146125D01*
X0552683Y0144975D01*
X0554718Y0144132D01*
X0556859Y0143618D01*
X0558555Y0143484D01*
Y0156980D01*
D02*
G37*
G36*
X0029744D02*
X0016248D01*
Y0143484D01*
X0017944Y0143618D01*
X0020085Y0144132D01*
X0022120Y0144975D01*
X0023998Y0146125D01*
X0025673Y0147556D01*
X0027103Y0149231D01*
X0028254Y0151108D01*
X0029096Y0153143D01*
X0029611Y0155285D01*
X0029744Y0156980D01*
D02*
G37*
G36*
X0271528Y0064945D02*
Y0059555D01*
X0275015D01*
Y0061024D01*
X0274879Y0062055D01*
X0274481Y0063017D01*
X0273847Y0063843D01*
X0273022Y0064476D01*
X0272060Y0064875D01*
X0271528Y0064945D01*
D02*
G37*
G36*
X0270528D02*
X0269996Y0064875D01*
X0269035Y0064476D01*
X0268209Y0063843D01*
X0267575Y0063017D01*
X0267177Y0062055D01*
X0267041Y0061024D01*
Y0059555D01*
X0270528D01*
Y0064945D01*
D02*
G37*
G36*
Y0058555D02*
X0267041D01*
Y0057087D01*
X0267177Y0056055D01*
X0267575Y0055093D01*
X0268209Y0054268D01*
X0269035Y0053634D01*
X0269996Y0053236D01*
X0270528Y0053166D01*
Y0058555D01*
D02*
G37*
G36*
X0275015D02*
X0271528D01*
Y0053166D01*
X0272060Y0053236D01*
X0273022Y0053634D01*
X0273847Y0054268D01*
X0274481Y0055093D01*
X0274879Y0056055D01*
X0275015Y0057087D01*
Y0058555D01*
D02*
G37*
G36*
X0048990Y0039883D02*
X0048142Y0039715D01*
X0047422Y0039234D01*
X0046942Y0038514D01*
X0046773Y0037666D01*
X0046942Y0036817D01*
X0047422Y0036098D01*
X0048142Y0035617D01*
X0048990Y0035449D01*
X0049839Y0035617D01*
X0050509Y0036065D01*
X0050546Y0036078D01*
X0050582Y0036110D01*
X0050596Y0036119D01*
X0050624Y0036134D01*
X0050670Y0036152D01*
X0050733Y0036172D01*
X0050814Y0036190D01*
X0050904Y0036205D01*
X0051162Y0036226D01*
X0051311Y0036229D01*
X0051362Y0036251D01*
X0134372D01*
X0150913Y0019711D01*
X0150931Y0019662D01*
X0151138Y0019438D01*
X0151206Y0019354D01*
X0151264Y0019274D01*
X0151308Y0019204D01*
X0151339Y0019145D01*
X0151358Y0019100D01*
X0151368Y0019069D01*
X0151371Y0019053D01*
X0151374Y0019005D01*
X0151391Y0018969D01*
X0151548Y0018179D01*
X0151891Y0017666D01*
X0151636Y0017166D01*
X0150868D01*
X0146882Y0021152D01*
X0146424Y0021458D01*
X0145882Y0021566D01*
X0143541D01*
X0143493Y0021588D01*
X0143188Y0021599D01*
X0143081Y0021611D01*
X0142983Y0021627D01*
X0142903Y0021645D01*
X0142839Y0021665D01*
X0142794Y0021683D01*
X0142765Y0021698D01*
X0142752Y0021707D01*
X0142715Y0021739D01*
X0142678Y0021752D01*
X0142008Y0022200D01*
X0141160Y0022369D01*
X0140311Y0022200D01*
X0139592Y0021719D01*
X0139111Y0021000D01*
X0138942Y0020151D01*
X0139111Y0019303D01*
X0139592Y0018584D01*
X0140311Y0018103D01*
X0141160Y0017934D01*
X0142008Y0018103D01*
X0142678Y0018551D01*
X0142715Y0018563D01*
X0142752Y0018595D01*
X0142765Y0018605D01*
X0142794Y0018620D01*
X0142839Y0018638D01*
X0142903Y0018657D01*
X0142983Y0018676D01*
X0143073Y0018690D01*
X0143332Y0018712D01*
X0143480Y0018715D01*
X0143531Y0018737D01*
X0145296D01*
X0149282Y0014751D01*
X0149741Y0014445D01*
X0150282Y0014337D01*
X0155281D01*
X0155823Y0014445D01*
X0156282Y0014751D01*
X0157874Y0016344D01*
X0157923Y0016362D01*
X0158147Y0016569D01*
X0158231Y0016637D01*
X0158311Y0016695D01*
X0158381Y0016739D01*
X0158440Y0016770D01*
X0158485Y0016789D01*
X0158516Y0016799D01*
X0158532Y0016802D01*
X0158580Y0016804D01*
X0158616Y0016822D01*
X0159406Y0016979D01*
X0160125Y0017460D01*
X0160606Y0018179D01*
X0160775Y0019028D01*
X0160606Y0019876D01*
X0160125Y0020595D01*
X0159406Y0021076D01*
X0158557Y0021245D01*
X0157709Y0021076D01*
X0156989Y0020595D01*
X0156509Y0019876D01*
X0156401Y0019336D01*
X0156282Y0019238D01*
X0155783Y0019386D01*
X0155733Y0019434D01*
X0155645Y0019876D01*
X0155165Y0020595D01*
X0154445Y0021076D01*
X0153655Y0021233D01*
X0153619Y0021251D01*
X0153571Y0021253D01*
X0153555Y0021257D01*
X0153524Y0021266D01*
X0153479Y0021285D01*
X0153420Y0021317D01*
X0153350Y0021360D01*
X0153277Y0021414D01*
X0153079Y0021581D01*
X0152971Y0021685D01*
X0152920Y0021705D01*
X0135959Y0038666D01*
X0135500Y0038973D01*
X0134958Y0039081D01*
X0051371D01*
X0051324Y0039102D01*
X0051019Y0039114D01*
X0050912Y0039125D01*
X0050814Y0039141D01*
X0050733Y0039160D01*
X0050670Y0039179D01*
X0050624Y0039198D01*
X0050596Y0039213D01*
X0050582Y0039222D01*
X0050546Y0039254D01*
X0050509Y0039267D01*
X0049839Y0039715D01*
X0048990Y0039883D01*
D02*
G37*
G36*
X0148597Y0053717D02*
X0147748Y0053549D01*
X0147029Y0053068D01*
X0146548Y0052349D01*
X0146379Y0051500D01*
X0146548Y0050651D01*
X0146996Y0049981D01*
X0147009Y0049944D01*
X0147041Y0049908D01*
X0147050Y0049895D01*
X0147065Y0049866D01*
X0147083Y0049820D01*
X0147103Y0049757D01*
X0147121Y0049676D01*
X0147136Y0049586D01*
X0147157Y0049328D01*
X0147160Y0049179D01*
X0147182Y0049128D01*
Y0035606D01*
X0147290Y0035065D01*
X0147596Y0034606D01*
X0162566Y0019636D01*
X0162584Y0019587D01*
X0162792Y0019363D01*
X0162859Y0019279D01*
X0162917Y0019199D01*
X0162961Y0019129D01*
X0162992Y0019070D01*
X0163012Y0019025D01*
X0163021Y0018994D01*
X0163024Y0018978D01*
X0163027Y0018930D01*
X0163044Y0018894D01*
X0163201Y0018104D01*
X0163682Y0017384D01*
X0164402Y0016904D01*
X0165250Y0016735D01*
X0166099Y0016904D01*
X0166818Y0017384D01*
X0167299Y0018104D01*
X0167468Y0018952D01*
X0167299Y0019801D01*
X0166818Y0020520D01*
X0166099Y0021001D01*
X0165308Y0021158D01*
X0165273Y0021175D01*
X0165225Y0021178D01*
X0165209Y0021181D01*
X0165178Y0021191D01*
X0165133Y0021210D01*
X0165074Y0021241D01*
X0165004Y0021285D01*
X0164930Y0021339D01*
X0164732Y0021506D01*
X0164625Y0021609D01*
X0164574Y0021630D01*
X0150011Y0036192D01*
Y0049119D01*
X0150033Y0049166D01*
X0150045Y0049472D01*
X0150056Y0049579D01*
X0150072Y0049676D01*
X0150091Y0049757D01*
X0150110Y0049820D01*
X0150128Y0049866D01*
X0150144Y0049895D01*
X0150153Y0049908D01*
X0150185Y0049944D01*
X0150198Y0049981D01*
X0150645Y0050651D01*
X0150814Y0051500D01*
X0150645Y0052349D01*
X0150165Y0053068D01*
X0149445Y0053549D01*
X0148597Y0053717D01*
D02*
G37*
G36*
X0016248Y0029744D02*
Y0016248D01*
X0029744D01*
X0029611Y0017944D01*
X0029096Y0020085D01*
X0028254Y0022120D01*
X0027103Y0023998D01*
X0025673Y0025673D01*
X0023998Y0027103D01*
X0022120Y0028254D01*
X0020085Y0029096D01*
X0017944Y0029611D01*
X0016248Y0029744D01*
D02*
G37*
%LPD*%
G36*
X0050182Y0038708D02*
X0050261Y0038655D01*
X0050351Y0038608D01*
X0050453Y0038567D01*
X0050565Y0038532D01*
X0050689Y0038504D01*
X0050825Y0038482D01*
X0050972Y0038466D01*
X0051299Y0038453D01*
Y0036878D01*
X0051130Y0036875D01*
X0050825Y0036850D01*
X0050689Y0036828D01*
X0050565Y0036800D01*
X0050453Y0036765D01*
X0050351Y0036724D01*
X0050261Y0036677D01*
X0050182Y0036623D01*
X0050115Y0036564D01*
Y0038768D01*
X0050182Y0038708D01*
D02*
G37*
G36*
X0142352Y0021194D02*
X0142430Y0021140D01*
X0142520Y0021093D01*
X0142622Y0021052D01*
X0142735Y0021017D01*
X0142859Y0020989D01*
X0142994Y0020967D01*
X0143141Y0020951D01*
X0143468Y0020939D01*
Y0019364D01*
X0143299Y0019361D01*
X0142994Y0019336D01*
X0142859Y0019314D01*
X0142735Y0019285D01*
X0142622Y0019251D01*
X0142520Y0019210D01*
X0142430Y0019162D01*
X0142352Y0019109D01*
X0142284Y0019049D01*
Y0021254D01*
X0142352Y0021194D01*
D02*
G37*
G36*
X0152643Y0021099D02*
X0152876Y0020902D01*
X0152988Y0020821D01*
X0153095Y0020754D01*
X0153200Y0020698D01*
X0153300Y0020656D01*
X0153397Y0020626D01*
X0153491Y0020608D01*
X0153581Y0020602D01*
X0152022Y0019043D01*
X0152017Y0019133D01*
X0151999Y0019227D01*
X0151969Y0019324D01*
X0151926Y0019425D01*
X0151871Y0019529D01*
X0151803Y0019637D01*
X0151723Y0019748D01*
X0151630Y0019863D01*
X0151407Y0020103D01*
X0152521Y0021217D01*
X0152643Y0021099D01*
D02*
G37*
G36*
X0158542Y0017453D02*
X0158451Y0017447D01*
X0158358Y0017430D01*
X0158261Y0017399D01*
X0158160Y0017357D01*
X0158056Y0017301D01*
X0157948Y0017234D01*
X0157837Y0017154D01*
X0157722Y0017061D01*
X0157482Y0016838D01*
X0156368Y0017952D01*
X0156485Y0018074D01*
X0156683Y0018307D01*
X0156763Y0018418D01*
X0156831Y0018526D01*
X0156886Y0018631D01*
X0156929Y0018731D01*
X0156959Y0018828D01*
X0156977Y0018922D01*
X0156983Y0019012D01*
X0158542Y0017453D01*
D02*
G37*
G36*
X0149639Y0050308D02*
X0149586Y0050229D01*
X0149538Y0050139D01*
X0149497Y0050038D01*
X0149463Y0049925D01*
X0149434Y0049801D01*
X0149412Y0049665D01*
X0149397Y0049519D01*
X0149384Y0049191D01*
X0147809D01*
X0147806Y0049361D01*
X0147781Y0049665D01*
X0147759Y0049801D01*
X0147731Y0049925D01*
X0147696Y0050038D01*
X0147655Y0050139D01*
X0147608Y0050229D01*
X0147554Y0050308D01*
X0147494Y0050375D01*
X0149699D01*
X0149639Y0050308D01*
D02*
G37*
G36*
X0164296Y0021024D02*
X0164530Y0020826D01*
X0164641Y0020746D01*
X0164749Y0020679D01*
X0164853Y0020623D01*
X0164954Y0020581D01*
X0165051Y0020550D01*
X0165144Y0020533D01*
X0165234Y0020527D01*
X0163675Y0018968D01*
X0163670Y0019058D01*
X0163652Y0019152D01*
X0163622Y0019249D01*
X0163579Y0019350D01*
X0163524Y0019454D01*
X0163456Y0019561D01*
X0163376Y0019673D01*
X0163284Y0019788D01*
X0163061Y0020028D01*
X0164174Y0021142D01*
X0164296Y0021024D01*
D02*
G37*
D10*
X0315371Y0049240D02*
X0335912D01*
X0339599Y0052927D02*
X0391324D01*
X0335912Y0049240D02*
X0339599Y0052927D01*
X0401968Y0050528D02*
X0404134Y0048363D01*
X0393723Y0050528D02*
X0401968D01*
X0391324Y0052927D02*
X0393723Y0050528D01*
X0312874Y0051736D02*
X0315371Y0049240D01*
X0322874Y0054894D02*
X0326928Y0050840D01*
X0335249D01*
X0338936Y0054527D02*
X0391987D01*
X0335249Y0050840D02*
X0338936Y0054527D01*
X0405703Y0052128D02*
X0407181Y0050650D01*
X0394386Y0052128D02*
X0405703D01*
X0391987Y0054527D02*
X0394386Y0052128D01*
X0312874Y0051736D02*
Y0054895D01*
D94*
X0301870Y0079642D02*
X0305768D01*
X0316906Y0068504D01*
X0265272Y0079445D02*
X0268898Y0083071D01*
X0304319D01*
X0317486Y0069904D01*
X0403504D01*
X0424407Y0022766D02*
Y0049001D01*
X0409232Y0007591D02*
X0424407Y0022766D01*
X0400041Y0007591D02*
X0409232D01*
X0410561Y0011230D02*
X0423007Y0023676D01*
X0401404Y0011230D02*
X0410561D01*
X0316906Y0068504D02*
X0402924D01*
X0403504Y0069904D02*
X0424407Y0049001D01*
X0402924Y0068504D02*
X0423007Y0048421D01*
Y0023676D02*
Y0048421D01*
X0408134Y0033958D02*
X0412634Y0038457D01*
X0409934Y0031237D02*
X0412634Y0033937D01*
X0390569Y0007200D02*
X0408134Y0024766D01*
X0391314Y0005400D02*
X0409934Y0024020D01*
X0314342Y0007200D02*
X0390569D01*
X0305916Y0015625D02*
X0314342Y0007200D01*
X0313596Y0005400D02*
X0391314D01*
X0305171Y0013825D02*
X0313596Y0005400D01*
X0283263Y0015625D02*
X0305916D01*
X0282517Y0013825D02*
X0305171D01*
X0408134Y0024766D02*
Y0033958D01*
X0409934Y0024020D02*
Y0031237D01*
X0372492Y0047083D02*
X0374634Y0044941D01*
Y0030713D02*
Y0044941D01*
X0312945Y0004000D02*
X0398739D01*
X0304520Y0012425D02*
X0312945Y0004000D01*
X0267888Y0031000D02*
X0283263Y0015625D01*
X0266088Y0030254D02*
X0282517Y0013825D01*
X0266088Y0030254D02*
Y0031754D01*
X0267888Y0031000D02*
Y0031754D01*
X0269134Y0033000D01*
X0264843D02*
X0266088Y0031754D01*
X0260633Y0033279D02*
X0281487Y0012425D01*
X0304520D01*
D95*
X0150282Y0015752D02*
X0155281D01*
X0145882Y0020151D02*
X0150282Y0015752D01*
X0141160Y0020151D02*
X0145882D01*
X0155281Y0015752D02*
X0158557Y0019028D01*
X0048990Y0037666D02*
X0134958D01*
X0153597Y0019028D01*
X0148597Y0035606D02*
X0165250Y0018952D01*
X0148597Y0035606D02*
Y0051500D01*
D96*
X0291028Y0053803D02*
X0304806Y0040025D01*
X0291028Y0053803D02*
Y0059055D01*
X0304806Y0040025D02*
X0335406D01*
X0346027Y0050646D01*
X0374228D01*
X0378638Y0046236D01*
X0384378Y0065362D02*
X0395331Y0054409D01*
X0384304Y0065436D02*
X0384378Y0065362D01*
X0353728Y0010106D02*
X0389648D01*
X0343418Y0065436D02*
X0384304D01*
X0332874Y0054893D02*
X0343418Y0065436D01*
X0363324Y0076555D02*
X0380709D01*
X0495239Y0076555D02*
X0511201D01*
X0380709Y0076555D02*
X0495239Y0076555D01*
X0495239Y0076555D01*
X0511201D02*
X0514961Y0080315D01*
X0415427Y0046695D02*
Y0050650D01*
X0411667Y0054409D02*
X0415427Y0050650D01*
Y0040994D02*
Y0046695D01*
Y0040994D02*
X0416134Y0040287D01*
Y0034000D02*
Y0040287D01*
X0395331Y0054409D02*
X0411667D01*
X0405221Y0036489D02*
X0415427Y0046695D01*
X0405221Y0025679D02*
Y0036489D01*
X0389648Y0010106D02*
X0405221Y0025679D01*
X0407508Y0016000D02*
X0416134Y0024626D01*
Y0034000D01*
X0416326Y0033808D02*
X0419634D01*
X0416134Y0034000D02*
X0416326Y0033808D01*
X0416628Y0025120D02*
X0419784D01*
X0416134Y0024626D02*
X0416628Y0025120D01*
D99*
X0513098Y0032638D02*
X0540472D01*
X0506618Y0026159D02*
X0513098Y0032638D01*
X0540472D02*
X0547737Y0039903D01*
X0533588Y0023704D02*
X0542673D01*
X0520398Y0026158D02*
X0522941Y0028701D01*
X0492838Y0026159D02*
X0503255Y0036575D01*
X0538841D01*
X0479060Y0026159D02*
X0493413Y0040512D01*
X0533460D01*
X0522941Y0028701D02*
X0542103D01*
X0538841Y0036575D02*
X0543800Y0041534D01*
X0533460Y0040512D02*
X0533460Y0040512D01*
X0537210D01*
X0539863Y0043165D01*
X0542103Y0028701D02*
X0551674Y0038272D01*
X0542673Y0023704D02*
X0555611Y0036642D01*
X0539863Y0043165D02*
Y0089299D01*
X0475458Y0143414D02*
X0484312Y0134559D01*
X0515050Y0138496D02*
X0521976Y0145423D01*
X0538041D01*
X0521976D02*
X0521976D01*
X0538041D02*
X0555611Y0127854D01*
Y0036642D02*
Y0127854D01*
X0541253Y0136405D02*
X0551674Y0125984D01*
X0533284Y0136405D02*
X0541253D01*
X0551674Y0038272D02*
Y0125984D01*
X0539560Y0123373D02*
X0547737Y0115196D01*
X0539560Y0123373D02*
X0539560D01*
X0539559Y0123373D02*
X0539560Y0123373D01*
X0547737Y0039903D02*
Y0115196D01*
X0539559Y0108910D02*
X0543800Y0104669D01*
Y0041534D02*
Y0104669D01*
X0486164Y0108910D02*
X0539559D01*
X0533283Y0095878D02*
X0539863Y0089299D01*
X0424162Y0102260D02*
X0479514D01*
X0486164Y0108910D01*
X0353411Y0143414D02*
X0360418Y0136406D01*
X0212067Y0143414D02*
X0353411D01*
X0203212Y0134559D02*
X0212067Y0143414D01*
X0170011Y0134559D02*
X0203212D01*
X0357899Y0149138D02*
X0368899Y0138138D01*
X0206793Y0149138D02*
X0357899D01*
X0203079Y0145423D02*
X0206793Y0149138D01*
X0169924Y0134646D02*
X0170011Y0134559D01*
X0165328Y0134646D02*
X0169924D01*
X0163568Y0136406D02*
X0165328Y0134646D01*
X0161030Y0129397D02*
X0207379D01*
X0157352Y0123435D02*
X0210746D01*
X0219028Y0123373D02*
X0220662D01*
X0212439Y0116783D02*
X0219028Y0123373D01*
X0160635Y0116783D02*
X0212439D01*
X0360418Y0136406D02*
X0362624Y0134201D01*
X0399704D01*
X0408917Y0143414D01*
X0475458D01*
X0482787Y0147351D02*
X0487152Y0142986D01*
X0407286Y0147351D02*
X0482787D01*
X0405358Y0145423D02*
X0407286Y0147351D01*
X0399929Y0145423D02*
X0405358D01*
X0480493Y0129397D02*
X0485575D01*
X0479892Y0129998D02*
X0480493Y0129397D01*
X0485575D02*
X0486800Y0130622D01*
X0491283Y0138496D02*
X0515050D01*
X0486800Y0130622D02*
X0527502D01*
X0511326Y0122748D02*
X0538935D01*
X0505216Y0116638D02*
X0511326Y0122748D01*
X0527502Y0130622D02*
X0533284Y0136405D01*
X0538935Y0122748D02*
X0539560Y0123373D01*
X0479544Y0129998D02*
X0479892D01*
X0479406Y0130136D02*
X0479544Y0129998D01*
X0487152Y0142627D02*
X0491283Y0138496D01*
X0479406Y0130136D02*
X0479406D01*
X0479297Y0130027D02*
X0479406Y0130136D01*
X0430398Y0116638D02*
X0505216D01*
X0507798Y0095878D02*
X0533284D01*
X0500058Y0088138D02*
X0507798Y0095878D01*
X0418977Y0088138D02*
X0500058D01*
X0420564Y0095880D02*
X0482464D01*
X0482463Y0095880D02*
X0482464Y0095880D01*
X0171642Y0138496D02*
X0196152D01*
X0203079Y0145423D01*
X0207379Y0129397D02*
X0214386Y0136405D01*
X0161000Y0149138D02*
X0171642Y0138496D01*
X0368899Y0138138D02*
X0392644D01*
X0399929Y0145423D01*
X0487152Y0142627D02*
Y0142986D01*
X0482060Y0157138D02*
X0493774Y0145424D01*
X0383441Y0157138D02*
X0482060D01*
X0371727Y0145424D02*
X0383441Y0157138D01*
X0360013D02*
X0371727Y0145424D01*
X0186590Y0157138D02*
X0360013D01*
X0174876Y0145424D02*
X0186590Y0157138D01*
X0433370Y0130027D02*
X0479297D01*
X0426992Y0136405D02*
X0433370Y0130027D01*
X0411237Y0136405D02*
X0426992D01*
X0404229Y0129397D02*
X0411237Y0136405D01*
X0357880Y0129397D02*
X0404229D01*
X0361000Y0124638D02*
X0408800D01*
X0359737Y0123375D02*
X0361000Y0124638D01*
X0362706Y0119498D02*
X0413637D01*
X0359346Y0116138D02*
X0362706Y0119498D01*
X0413637D02*
X0417512Y0123373D01*
X0420105Y0115561D02*
X0420529Y0115138D01*
X0414228Y0115561D02*
X0420105D01*
X0413805Y0115138D02*
X0414228Y0115561D01*
X0364000Y0115138D02*
X0413805D01*
X0357774Y0108912D02*
X0364000Y0115138D01*
X0350872Y0136405D02*
X0357880Y0129397D01*
X0214386Y0136405D02*
X0350872D01*
X0354142Y0123375D02*
X0359737Y0123375D01*
X0347263Y0123375D02*
X0354142D01*
X0340500Y0130138D02*
X0347263Y0123375D01*
X0217449Y0130138D02*
X0340500D01*
X0408800Y0124638D02*
X0415300Y0131138D01*
X0424398D01*
X0432161Y0123375D01*
X0476190D01*
X0210746Y0123435D02*
X0217449Y0130138D01*
X0160575Y0116724D02*
X0160635Y0116783D01*
X0154698Y0116724D02*
X0160575D01*
X0154638Y0116783D02*
X0154698Y0116724D01*
X0111354Y0116783D02*
X0154638D01*
X0104765Y0123373D02*
X0111354Y0116783D01*
X0160274Y0108912D02*
X0164208Y0112846D01*
X0223255Y0115561D02*
X0223678Y0115138D01*
X0164208Y0112846D02*
X0214663D01*
X0217378Y0115561D02*
X0223255D01*
X0214663Y0112846D02*
X0217378Y0115561D01*
X0157292Y0123375D02*
X0157352Y0123435D01*
X0154022Y0136405D02*
X0161030Y0129397D01*
X0417513Y0123373D02*
X0423663D01*
X0430398Y0116638D01*
X0314500Y0116138D02*
X0359346D01*
X0354141Y0108912D02*
X0357774D01*
X0307265Y0123373D02*
X0314500Y0116138D01*
X0220662Y0123373D02*
X0307265D01*
X0354141Y0108912D02*
X0354141Y0108912D01*
X0232274Y0108912D02*
X0354141D01*
X0157291Y0108912D02*
X0160274D01*
X0167266Y0108909D02*
X0220661D01*
X0160616Y0102260D02*
X0167266Y0108909D01*
X0105264Y0102260D02*
X0160616D01*
X0110226Y0108912D02*
X0157291D01*
X0420529Y0115138D02*
X0422898D01*
X0429124Y0108912D01*
X0476189D01*
X0223678Y0115138D02*
X0226048D01*
X0232274Y0108912D01*
X0360417Y0095880D02*
X0367424Y0102888D01*
X0413556D01*
X0420564Y0095880D01*
X0411236Y0095878D02*
X0418977Y0088138D01*
X0417512Y0108910D02*
X0424162Y0102260D01*
X0363899Y0108909D02*
X0417512D01*
X0351053Y0096063D02*
X0363899Y0108909D01*
X0233508Y0096063D02*
X0351053D01*
X0356662Y0092126D02*
X0360416Y0095880D01*
X0216706Y0102887D02*
X0227467Y0092126D01*
X0356662D01*
X0220661Y0108909D02*
X0233508Y0096063D01*
X0163566Y0095880D02*
X0170573Y0102887D01*
X0216706D01*
X0222126Y0088138D02*
X0292000D01*
X0367850Y0088138D01*
X0375591Y0095878D01*
X0214386D02*
X0222126Y0088138D01*
X0375591Y0095878D02*
X0411236D01*
X0164162Y0156138D02*
X0174876Y0145424D01*
X0063543Y0156138D02*
X0164162D01*
X0052829Y0145424D02*
X0063543Y0156138D01*
X0084746Y0149138D02*
X0161000D01*
X0081031Y0145423D02*
X0084746Y0149138D01*
X0092339Y0136405D02*
X0154022D01*
X0155336Y0144638D02*
X0163568Y0136406D01*
X0090000Y0144638D02*
X0155336D01*
X0081769Y0136406D02*
X0090000Y0144638D01*
X0041521Y0136406D02*
X0081769D01*
X0113263Y0123375D02*
X0157292D01*
X0105500Y0131138D02*
X0113263Y0123375D01*
X0096402Y0131138D02*
X0105500D01*
X0094659Y0129395D02*
X0096402Y0131138D01*
X0041264Y0129395D02*
X0094659D01*
X0035244Y0123375D02*
X0041264Y0129395D01*
X0098614Y0123373D02*
X0104765D01*
X0104000Y0115138D02*
X0110226Y0108912D01*
X0101631Y0115138D02*
X0104000D01*
X0101208Y0115561D02*
X0101631Y0115138D01*
X0041893Y0115561D02*
X0101208D01*
X0035244Y0108912D02*
X0041893Y0115561D01*
X0098614Y0108909D02*
X0105264Y0102260D01*
X0101666Y0095880D02*
X0163566D01*
X0094658Y0102887D02*
X0101666Y0095880D01*
X0048526Y0102887D02*
X0094658D01*
X0041518Y0095880D02*
X0048526Y0102887D01*
X0178740Y0095878D02*
X0214386D01*
X0171000Y0088138D02*
X0178740Y0095878D01*
X0100079Y0088138D02*
X0171000D01*
X0092339Y0095878D02*
X0100079Y0088138D01*
D100*
X0291028Y0059055D02*
D03*
X0271028D02*
D03*
D101*
X0312874Y0044895D02*
D03*
X0332874Y0044893D02*
D03*
X0322873Y0044894D02*
D03*
X0332874Y0054893D02*
D03*
X0322874Y0054894D02*
D03*
D102*
X0312874Y0054895D02*
D03*
D103*
X0066929Y0083642D02*
D03*
X0066930Y0148642D02*
D03*
X0188976Y0083642D02*
D03*
X0188978Y0148642D02*
D03*
X0385827Y0083642D02*
D03*
X0385828Y0148642D02*
D03*
X0507874Y0083642D02*
D03*
X0507875Y0148642D02*
D03*
D104*
X0081030Y0086860D02*
D03*
X0052829Y0145424D02*
D03*
X0203078Y0086860D02*
D03*
X0174876Y0145424D02*
D03*
X0399928Y0086860D02*
D03*
X0371727Y0145424D02*
D03*
X0521975Y0086861D02*
D03*
X0493774Y0145424D02*
D03*
D105*
X0092339Y0095878D02*
D03*
X0041521Y0136406D02*
D03*
X0214386Y0095878D02*
D03*
X0163568Y0136406D02*
D03*
X0411236Y0095878D02*
D03*
X0360418Y0136406D02*
D03*
X0533283Y0095878D02*
D03*
X0482465Y0136407D02*
D03*
D106*
X0098614Y0108909D02*
D03*
X0035244Y0123375D02*
D03*
X0220661Y0108909D02*
D03*
X0157292Y0123375D02*
D03*
X0417512Y0108909D02*
D03*
X0354142Y0123375D02*
D03*
X0539559Y0108910D02*
D03*
X0476189Y0123375D02*
D03*
D107*
X0098614Y0123373D02*
D03*
X0035244Y0108912D02*
D03*
X0220662Y0123373D02*
D03*
X0157291Y0108912D02*
D03*
X0417512Y0123373D02*
D03*
X0354141Y0108912D02*
D03*
X0539559Y0123373D02*
D03*
X0476189Y0108912D02*
D03*
D108*
X0092339Y0136405D02*
D03*
X0041518Y0095880D02*
D03*
X0214386Y0136405D02*
D03*
X0163566Y0095880D02*
D03*
X0411237Y0136405D02*
D03*
X0360416Y0095880D02*
D03*
X0533284Y0136405D02*
D03*
X0482463Y0095880D02*
D03*
D109*
X0081031Y0145423D02*
D03*
X0203079D02*
D03*
X0399929D02*
D03*
X0521976Y0145423D02*
D03*
D110*
X0301181Y0116142D02*
D03*
X0287402Y0102362D02*
D03*
X0273622Y0116142D02*
D03*
D111*
X0015748Y0157480D02*
D03*
Y0015748D02*
D03*
X0559055D02*
D03*
Y0157480D02*
D03*
D112*
X0015827Y0080712D02*
D03*
X0026614Y0080710D02*
D03*
X0007500Y0096925D02*
D03*
X0037402Y0080709D02*
D03*
X0519807Y0072833D02*
D03*
X0530594Y0072831D02*
D03*
X0439921Y0057608D02*
D03*
X0450709Y0057607D02*
D03*
X0461496Y0057605D02*
D03*
X0472284Y0057603D02*
D03*
X0434512Y0069177D02*
D03*
X0445300Y0069175D02*
D03*
X0456087Y0069173D02*
D03*
X0466875Y0069172D02*
D03*
X0259700Y0040525D02*
D03*
X0270487Y0040524D02*
D03*
X0281275Y0040522D02*
D03*
X0194975Y0048077D02*
D03*
X0205763Y0048076D02*
D03*
X0216550Y0048074D02*
D03*
X0227338Y0048072D02*
D03*
X0313016Y0014128D02*
D03*
X0323803Y0014127D02*
D03*
X0434949Y0020781D02*
D03*
X0445737Y0020779D02*
D03*
X0456524Y0020778D02*
D03*
X0467312Y0020776D02*
D03*
X0507071Y0003929D02*
D03*
X0517858Y0003927D02*
D03*
X0528646Y0003926D02*
D03*
X0539433Y0003924D02*
D03*
X0463921Y0003935D02*
D03*
X0474708Y0003934D02*
D03*
X0485496Y0003932D02*
D03*
X0496283Y0003930D02*
D03*
X0567290Y0049038D02*
D03*
X0567288Y0038251D02*
D03*
X0567297Y0092188D02*
D03*
X0567295Y0081401D02*
D03*
X0567293Y0070613D02*
D03*
X0567292Y0059826D02*
D03*
X0567303Y0135338D02*
D03*
X0567302Y0124551D02*
D03*
X0567300Y0113763D02*
D03*
X0567298Y0102976D02*
D03*
X0408189Y0165746D02*
D03*
X0397402Y0165748D02*
D03*
X0386614Y0165750D02*
D03*
X0375827Y0165751D02*
D03*
X0291667Y0165740D02*
D03*
X0280880Y0165742D02*
D03*
X0270092Y0165743D02*
D03*
X0259305Y0165745D02*
D03*
X0206241Y0165733D02*
D03*
X0195454Y0165735D02*
D03*
X0184666Y0165737D02*
D03*
X0173879Y0165738D02*
D03*
X0067467Y0165733D02*
D03*
X0056679Y0165735D02*
D03*
X0045892Y0165737D02*
D03*
X0007502Y0107713D02*
D03*
X0007503Y0118500D02*
D03*
X0007505Y0129288D02*
D03*
X0222099Y0078193D02*
D03*
X0232886Y0078192D02*
D03*
X0243673Y0078190D02*
D03*
X0254461Y0078189D02*
D03*
X0302850Y0061908D02*
D03*
X0313637Y0061906D02*
D03*
X0324425Y0061905D02*
D03*
X0259700Y0061914D02*
D03*
X0281275Y0061911D02*
D03*
X0216550Y0061921D02*
D03*
X0227338Y0061919D02*
D03*
X0238125Y0061918D02*
D03*
X0248913Y0061916D02*
D03*
X0130246Y0078235D02*
D03*
X0141034Y0078233D02*
D03*
X0151821Y0078232D02*
D03*
X0087097Y0078242D02*
D03*
X0097884Y0078240D02*
D03*
X0108672Y0078238D02*
D03*
X0119459Y0078237D02*
D03*
X0173400Y0061927D02*
D03*
X0184188Y0061926D02*
D03*
X0194975Y0061924D02*
D03*
X0205763Y0061923D02*
D03*
X0130251Y0061934D02*
D03*
X0141038Y0061932D02*
D03*
X0151826Y0061931D02*
D03*
X0162613Y0061929D02*
D03*
X0087101Y0061941D02*
D03*
X0097888Y0061939D02*
D03*
X0108676Y0061937D02*
D03*
X0119463Y0061936D02*
D03*
X0076314Y0061942D02*
D03*
X0065526Y0061944D02*
D03*
X0054739Y0061945D02*
D03*
X0073129Y0005224D02*
D03*
X0041943Y0005090D02*
D03*
X0031156Y0004956D02*
D03*
X0138601Y0039835D02*
D03*
X0138467Y0050622D02*
D03*
X0105276Y0042229D02*
D03*
X0116063Y0042363D02*
D03*
X0105276Y0033192D02*
D03*
X0116063Y0033326D02*
D03*
X0113502Y0014976D02*
D03*
X0124290Y0015110D02*
D03*
X0091927Y0014709D02*
D03*
X0102715Y0014842D02*
D03*
X0043951Y0061947D02*
D03*
X0033164Y0061949D02*
D03*
X0279797Y0078291D02*
D03*
X0363324Y0076689D02*
D03*
X0366773Y0076712D02*
D03*
X0527747Y0053887D02*
D03*
X0513914Y0053887D02*
D03*
X0500144Y0053925D02*
D03*
X0486391Y0053925D02*
D03*
X0005906Y0069904D02*
D03*
X0004189Y0067207D02*
D03*
X0004122Y0072601D02*
D03*
X0007689Y0067207D02*
D03*
X0007622Y0072601D02*
D03*
X0533588Y0023704D02*
D03*
X0531595Y0016865D02*
D03*
X0514961Y0080315D02*
D03*
X0160575Y0079921D02*
D03*
X0301870Y0079642D02*
D03*
X0265272Y0079445D02*
D03*
X0400041Y0007591D02*
D03*
X0401404Y0011230D02*
D03*
X0407181Y0050650D02*
D03*
X0517815Y0016866D02*
D03*
X0504036Y0016867D02*
D03*
X0490256Y0016867D02*
D03*
X0476477Y0016867D02*
D03*
X0479060Y0026159D02*
D03*
X0492838Y0026159D02*
D03*
X0506618Y0026159D02*
D03*
X0520398Y0026158D02*
D03*
X0415427Y0050650D02*
D03*
X0341101Y0010253D02*
D03*
X0356500Y0011619D02*
D03*
X0371145Y0027559D02*
D03*
X0412634Y0038457D02*
D03*
X0401276Y0036591D02*
D03*
X0384378Y0065362D02*
D03*
X0404134Y0048363D02*
D03*
X0412634Y0033937D02*
D03*
X0407508Y0016000D02*
D03*
X0396945Y0027929D02*
D03*
Y0023598D02*
D03*
X0345412Y0011619D02*
D03*
X0348184Y0010106D02*
D03*
X0350956Y0011619D02*
D03*
X0353728Y0010106D02*
D03*
X0189172Y0009500D02*
D03*
X0183955Y0006803D02*
D03*
X0183888Y0012197D02*
D03*
X0194455D02*
D03*
X0194388Y0006803D02*
D03*
X0199672Y0009500D02*
D03*
X0204955Y0012197D02*
D03*
X0204888Y0006803D02*
D03*
X0210172Y0009500D02*
D03*
X0215455Y0012197D02*
D03*
X0215388Y0006803D02*
D03*
X0378638Y0046236D02*
D03*
X0372492Y0047083D02*
D03*
X0398739Y0004000D02*
D03*
X0419634Y0033808D02*
D03*
X0419784Y0025120D02*
D03*
X0383953Y0040921D02*
D03*
X0401276D02*
D03*
X0392614D02*
D03*
X0396945D02*
D03*
X0388283D02*
D03*
X0383953Y0036591D02*
D03*
X0388283D02*
D03*
X0392614D02*
D03*
X0396945D02*
D03*
X0383953Y0032260D02*
D03*
X0388283D02*
D03*
X0392614D02*
D03*
X0396945D02*
D03*
X0401276D02*
D03*
X0383953Y0027929D02*
D03*
X0388283D02*
D03*
X0392614D02*
D03*
X0401276D02*
D03*
X0383953Y0023598D02*
D03*
X0388283D02*
D03*
X0392614D02*
D03*
X0269134Y0033000D02*
D03*
X0264843D02*
D03*
X0260633Y0033279D02*
D03*
X0351503Y0040213D02*
D03*
X0374634Y0030713D02*
D03*
X0032567Y0020082D02*
D03*
X0032500Y0025476D02*
D03*
X0036067Y0020082D02*
D03*
X0034284Y0022779D02*
D03*
X0036000Y0025476D02*
D03*
X0039567Y0020082D02*
D03*
X0037784Y0022779D02*
D03*
X0039500Y0025476D02*
D03*
X0300295Y0028394D02*
D03*
X0298579Y0025697D02*
D03*
X0300362Y0023000D02*
D03*
X0286295Y0028394D02*
D03*
X0288012Y0025697D02*
D03*
X0286228Y0023000D02*
D03*
X0289728D02*
D03*
X0293228D02*
D03*
X0296728D02*
D03*
X0291512Y0025697D02*
D03*
X0289795Y0028394D02*
D03*
X0295012Y0025697D02*
D03*
X0293295Y0028394D02*
D03*
X0296795D02*
D03*
X0141160Y0020151D02*
D03*
X0148597Y0051500D02*
D03*
X0216878Y0042634D02*
D03*
X0218661Y0039937D02*
D03*
X0220445Y0042634D02*
D03*
X0222228Y0039937D02*
D03*
X0227579Y0042634D02*
D03*
X0225795Y0039937D02*
D03*
X0224012Y0042634D02*
D03*
X0300646Y0006303D02*
D03*
X0302429Y0003606D02*
D03*
X0304213Y0006303D02*
D03*
X0298862Y0003606D02*
D03*
X0297079Y0006303D02*
D03*
X0295295Y0003606D02*
D03*
X0293512Y0006303D02*
D03*
X0259295Y0022571D02*
D03*
X0255795D02*
D03*
X0257512Y0025268D02*
D03*
X0252295Y0022571D02*
D03*
X0254012Y0025268D02*
D03*
X0259228Y0027965D02*
D03*
X0255728D02*
D03*
X0252228D02*
D03*
X0048990Y0037666D02*
D03*
X0153597Y0019028D02*
D03*
X0158557D02*
D03*
X0165250Y0018952D02*
D03*
X0427260Y0014634D02*
D03*
Y0017784D02*
D03*
M02*
