G04*
G04 #@! TF.GenerationSoftware,Altium Limited,Altium Designer,18.1.7 (191)*
G04*
G04 Layer_Color=65535*
%FSAX25Y25*%
%MOIN*%
G70*
G01*
G75*
%ADD12C,0.00394*%
D12*
X-0017717Y0173228D02*
X-0001197D01*
X-0017717Y0000000D02*
X-0001197D01*
X0574803Y-0015748D02*
Y-0001197D01*
X0000000Y-0015748D02*
Y-0001197D01*
X-0043774Y0170211D02*
Y0174147D01*
X-0045742Y0172179D01*
X-0043118D01*
X-0039839Y0170211D02*
Y0174147D01*
X-0041807Y0172179D01*
X-0039183D01*
X-0037215Y0169555D02*
X-0036559Y0170211D01*
Y0170867D01*
X-0037215D01*
Y0170211D01*
X-0036559D01*
X-0037215Y0169555D01*
X-0037871Y0168899D01*
X-0033935Y0173491D02*
X-0033279Y0174147D01*
X-0031967D01*
X-0031311Y0173491D01*
Y0170867D01*
X-0031967Y0170211D01*
X-0033279D01*
X-0033935Y0170867D01*
Y0173491D01*
X-0029999D02*
X-0029343Y0174147D01*
X-0028031D01*
X-0027375Y0173491D01*
Y0170867D01*
X-0028031Y0170211D01*
X-0029343D01*
X-0029999Y0170867D01*
Y0173491D01*
X-0026063Y0170211D02*
Y0172835D01*
X-0025407D01*
X-0024752Y0172179D01*
Y0170211D01*
Y0172179D01*
X-0024096Y0172835D01*
X-0023440Y0172179D01*
Y0170211D01*
X-0022128D02*
Y0172835D01*
X-0021472D01*
X-0020816Y0172179D01*
Y0170211D01*
Y0172179D01*
X-0020160Y0172835D01*
X-0019504Y0172179D01*
Y0170211D01*
X-0041807Y0000262D02*
X-0041151Y0000918D01*
X-0039839D01*
X-0039183Y0000262D01*
Y-0002362D01*
X-0039839Y-0003018D01*
X-0041151D01*
X-0041807Y-0002362D01*
Y0000262D01*
X-0037215Y-0003673D02*
X-0036559Y-0003018D01*
Y-0002362D01*
X-0037215D01*
Y-0003018D01*
X-0036559D01*
X-0037215Y-0003673D01*
X-0037871Y-0004329D01*
X-0033935Y0000262D02*
X-0033279Y0000918D01*
X-0031967D01*
X-0031311Y0000262D01*
Y-0002362D01*
X-0031967Y-0003018D01*
X-0033279D01*
X-0033935Y-0002362D01*
Y0000262D01*
X-0029999D02*
X-0029343Y0000918D01*
X-0028031D01*
X-0027375Y0000262D01*
Y-0002362D01*
X-0028031Y-0003018D01*
X-0029343D01*
X-0029999Y-0002362D01*
Y0000262D01*
X-0026063Y-0003018D02*
Y-0000394D01*
X-0025407D01*
X-0024752Y-0001050D01*
Y-0003018D01*
Y-0001050D01*
X-0024096Y-0000394D01*
X-0023440Y-0001050D01*
Y-0003018D01*
X-0022128D02*
Y-0000394D01*
X-0021472D01*
X-0020816Y-0001050D01*
Y-0003018D01*
Y-0001050D01*
X-0020160Y-0000394D01*
X-0019504Y-0001050D01*
Y-0003018D01*
X0559650Y-0022783D02*
X0560962D01*
X0560306D01*
Y-0018847D01*
X0559650Y-0019503D01*
X0564898Y-0022783D02*
Y-0018847D01*
X0562930Y-0020815D01*
X0565554D01*
X0569490Y-0018847D02*
X0568178Y-0019503D01*
X0566866Y-0020815D01*
Y-0022127D01*
X0567522Y-0022783D01*
X0568834D01*
X0569490Y-0022127D01*
Y-0021471D01*
X0568834Y-0020815D01*
X0566866D01*
X0571458Y-0023439D02*
X0572114Y-0022783D01*
Y-0022127D01*
X0571458D01*
Y-0022783D01*
X0572114D01*
X0571458Y-0023439D01*
X0570802Y-0024095D01*
X0574737Y-0019503D02*
X0575393Y-0018847D01*
X0576705D01*
X0577361Y-0019503D01*
Y-0022127D01*
X0576705Y-0022783D01*
X0575393D01*
X0574737Y-0022127D01*
Y-0019503D01*
X0578673D02*
X0579329Y-0018847D01*
X0580641D01*
X0581297Y-0019503D01*
Y-0022127D01*
X0580641Y-0022783D01*
X0579329D01*
X0578673Y-0022127D01*
Y-0019503D01*
X0582609Y-0022783D02*
Y-0020159D01*
X0583265D01*
X0583921Y-0020815D01*
Y-0022783D01*
Y-0020815D01*
X0584577Y-0020159D01*
X0585233Y-0020815D01*
Y-0022783D01*
X0586545D02*
Y-0020159D01*
X0587201D01*
X0587857Y-0020815D01*
Y-0022783D01*
Y-0020815D01*
X0588513Y-0020159D01*
X0589169Y-0020815D01*
Y-0022783D01*
X-0011545Y-0019503D02*
X-0010889Y-0018847D01*
X-0009577D01*
X-0008921Y-0019503D01*
Y-0022127D01*
X-0009577Y-0022783D01*
X-0010889D01*
X-0011545Y-0022127D01*
Y-0019503D01*
X-0006953Y-0023439D02*
X-0006297Y-0022783D01*
Y-0022127D01*
X-0006953D01*
Y-0022783D01*
X-0006297D01*
X-0006953Y-0023439D01*
X-0007609Y-0024095D01*
X-0003673Y-0019503D02*
X-0003018Y-0018847D01*
X-0001706D01*
X-0001050Y-0019503D01*
Y-0022127D01*
X-0001706Y-0022783D01*
X-0003018D01*
X-0003673Y-0022127D01*
Y-0019503D01*
X0000262D02*
X0000918Y-0018847D01*
X0002230D01*
X0002886Y-0019503D01*
Y-0022127D01*
X0002230Y-0022783D01*
X0000918D01*
X0000262Y-0022127D01*
Y-0019503D01*
X0004198Y-0022783D02*
Y-0020159D01*
X0004854D01*
X0005510Y-0020815D01*
Y-0022783D01*
Y-0020815D01*
X0006166Y-0020159D01*
X0006822Y-0020815D01*
Y-0022783D01*
X0008134D02*
Y-0020159D01*
X0008790D01*
X0009446Y-0020815D01*
Y-0022783D01*
Y-0020815D01*
X0010102Y-0020159D01*
X0010758Y-0020815D01*
Y-0022783D01*
M02*
